<svg width="6" height="6" viewBox="0 0 6 6" fill="none" xmlns="http://www.w3.org/2000/svg">
<path fill-rule="evenodd" clip-rule="evenodd" d="M5.90237 0.0976311C6.03254 0.227806 6.03254 0.438861 5.90237 0.569036L1.13807 5.33333L4.33333 5.33333C4.51743 5.33333 4.66667 5.48257 4.66667 5.66667C4.66667 5.85076 4.51743 6 4.33333 6H0.333333C0.149238 6 -2.64909e-08 5.85076 0 5.66667L3.17891e-07 1.66667C3.44382e-07 1.48257 0.149239 1.33333 0.333333 1.33333C0.517429 1.33333 0.666667 1.48257 0.666667 1.66667L0.666667 4.86193L5.43096 0.0976311C5.56114 -0.0325437 5.77219 -0.0325437 5.90237 0.0976311Z" fill="#7FCE9D"/>
</svg>
