<svg width="15" height="15" viewBox="0 0 15 15" fill="none" xmlns="http://www.w3.org/2000/svg">
<path d="M2.70635 2.82204C2.61627 2.94899 2.61627 3.12878 2.61627 3.48836C2.61627 3.84795 2.61627 4.02774 2.70635 4.15469C2.73813 4.19948 2.77724 4.2386 2.82204 4.27038C2.94899 4.36045 3.12878 4.36045 3.48836 4.36045C3.84795 4.36045 4.02774 4.36045 4.15469 4.27038C4.19948 4.2386 4.2386 4.19948 4.27038 4.15469C4.36045 4.02774 4.36045 3.84795 4.36045 3.48836C4.36045 3.12878 4.36045 2.94899 4.27038 2.82204C4.2386 2.77724 4.19948 2.73813 4.15469 2.70635C4.02774 2.61627 3.84795 2.61627 3.48836 2.61627C3.12878 2.61627 2.94899 2.61627 2.82204 2.70635C2.77724 2.73813 2.73813 2.77724 2.70635 2.82204Z" fill="#9B87F6"/>
<path fill-rule="evenodd" clip-rule="evenodd" d="M5.20056 0.0280526C5.50918 0.0573965 5.79679 0.121068 6.06059 0.282726C6.31875 0.440925 6.5358 0.657977 6.694 0.916135C6.85566 1.17994 6.91933 1.46755 6.94867 1.77617C6.97674 2.07138 6.97674 2.43485 6.97673 2.87037L6.97673 3.69906C6.97675 4.32589 6.97676 4.84862 6.92097 5.26358C6.86209 5.70157 6.73255 6.09701 6.41478 6.41478C6.09701 6.73255 5.70157 6.86209 5.26358 6.92097C4.84862 6.97676 4.32591 6.97675 3.69908 6.97673L2.87043 6.97673C2.43491 6.97674 2.07138 6.97674 1.77617 6.94867C1.46755 6.91933 1.17994 6.85566 0.916135 6.694C0.657977 6.5358 0.440925 6.31875 0.282726 6.06059C0.121068 5.79679 0.0573965 5.50918 0.0280526 5.20056C-1.74889e-05 4.90533 -9.37029e-06 4.54185 3.60649e-07 4.1063V4.05512C-6.20981e-06 3.39229 -1.15085e-05 2.85771 0.0409037 2.42739C0.0830987 1.98361 0.172472 1.59696 0.385534 1.24927C0.601261 0.897241 0.897241 0.601261 1.24927 0.385534C1.59696 0.172472 1.98361 0.0830987 2.42739 0.0409037C2.85771 -1.15085e-05 3.39227 -6.2098e-06 4.0551 3.60649e-07H4.10628C4.54184 -9.37029e-06 4.90533 -1.74889e-05 5.20056 0.0280526ZM5.1015 1.06986C4.86169 1.04706 4.54827 1.04651 4.08138 1.04651C3.38612 1.04651 2.90141 1.04706 2.52645 1.08271C2.15927 1.11763 1.95169 1.18247 1.79607 1.27783C1.58485 1.40727 1.40727 1.58485 1.27783 1.79607C1.18247 1.95169 1.11763 2.15927 1.08271 2.52645C1.04706 2.90141 1.04651 3.38612 1.04651 4.08138C1.04651 4.54827 1.04706 4.86169 1.06986 5.1015C1.09192 5.33352 1.13106 5.44206 1.17502 5.51379C1.24693 5.63114 1.34559 5.7298 1.46293 5.80171C1.53467 5.84567 1.64321 5.8848 1.87523 5.90686C2.11503 5.92967 2.42845 5.93022 2.89534 5.93022H3.66278C4.33535 5.93022 4.78713 5.92911 5.12413 5.8838C5.44608 5.84051 5.58387 5.76571 5.67479 5.67479C5.76571 5.58387 5.84051 5.44608 5.8838 5.12413C5.92911 4.78713 5.93022 4.33535 5.93022 3.66278V2.89534C5.93022 2.42845 5.92967 2.11503 5.90686 1.87523C5.8848 1.64321 5.84567 1.53467 5.80171 1.46293C5.7298 1.34559 5.63114 1.24693 5.51379 1.17502C5.44206 1.13106 5.33352 1.09192 5.1015 1.06986Z" fill="#9B87F6"/>
<path d="M10.7296 2.82204C10.6395 2.94899 10.6395 3.12878 10.6395 3.48836C10.6395 3.84795 10.6395 4.02774 10.7296 4.15469C10.7614 4.19948 10.8005 4.2386 10.8453 4.27038C10.9722 4.36045 11.152 4.36045 11.5116 4.36045C11.8712 4.36045 12.051 4.36045 12.1779 4.27038C12.2227 4.2386 12.2618 4.19948 12.2936 4.15469C12.3837 4.02774 12.3837 3.84795 12.3837 3.48836C12.3837 3.12878 12.3837 2.94899 12.2936 2.82204C12.2618 2.77724 12.2227 2.73813 12.1779 2.70635C12.051 2.61627 11.8712 2.61627 11.5116 2.61627C11.152 2.61627 10.9722 2.61627 10.8453 2.70635C10.8005 2.73813 10.7614 2.77724 10.7296 2.82204Z" fill="#9B87F6"/>
<path fill-rule="evenodd" clip-rule="evenodd" d="M10.8937 3.60649e-07H10.9448C11.6077 -6.20981e-06 12.1422 -1.15085e-05 12.5726 0.0409037C13.0163 0.0830987 13.403 0.172472 13.7507 0.385534C14.1027 0.601261 14.3987 0.897241 14.6144 1.24927C14.8275 1.59696 14.9169 1.98361 14.9591 2.42739C15 2.85771 15 3.39227 15 4.05511V4.10629C15 4.54185 15 4.90533 14.9719 5.20056C14.9426 5.50918 14.8789 5.79679 14.7172 6.06059C14.559 6.31875 14.342 6.5358 14.0838 6.694C13.82 6.85566 13.5324 6.91933 13.2238 6.94867C12.9286 6.97674 12.5651 6.97674 12.1297 6.97673L11.3009 6.97673C10.6741 6.97675 10.1513 6.97676 9.73638 6.92097C9.29839 6.86209 8.90295 6.73255 8.58518 6.41478C8.26741 6.09701 8.13787 5.70157 8.07899 5.26358C8.0232 4.84861 8.02321 4.3259 8.02323 3.69906V2.87044C8.02322 2.43488 8.02322 2.0714 8.05128 1.77617C8.08063 1.46755 8.1443 1.17994 8.30596 0.916135C8.46416 0.657977 8.68121 0.440925 8.93937 0.282726C9.20317 0.121068 9.49078 0.0573965 9.7994 0.0280526C10.0946 -1.74889e-05 10.4581 -9.37029e-06 10.8937 3.60649e-07ZM9.89846 1.06986C9.66644 1.09192 9.5579 1.13106 9.48617 1.17502C9.36882 1.24693 9.27016 1.34559 9.19825 1.46293C9.15429 1.53467 9.11516 1.64321 9.0931 1.87523C9.07029 2.11503 9.06974 2.42845 9.06974 2.89534V3.66278C9.06974 4.33535 9.07085 4.78713 9.11616 5.12413C9.15945 5.44608 9.23425 5.58387 9.32517 5.67479C9.41609 5.76571 9.55388 5.84051 9.87583 5.8838C10.2128 5.92911 10.6646 5.93022 11.3372 5.93022H12.1046C12.5715 5.93022 12.8849 5.92967 13.1247 5.90686C13.3568 5.8848 13.4653 5.84567 13.537 5.80171C13.6544 5.7298 13.753 5.63114 13.8249 5.51379C13.8689 5.44206 13.908 5.33352 13.9301 5.1015C13.9529 4.86169 13.9534 4.54827 13.9534 4.08138C13.9534 3.38612 13.9529 2.90141 13.9172 2.52645C13.8823 2.15927 13.8175 1.95169 13.7221 1.79607C13.5927 1.58485 13.4151 1.40727 13.2039 1.27783C13.0483 1.18247 12.8407 1.11763 12.4735 1.08271C12.0985 1.04706 11.6138 1.04651 10.9186 1.04651C10.4517 1.04651 10.1383 1.04706 9.89846 1.06986Z" fill="#9B87F6"/>
<path d="M2.61627 11.5116C2.61627 11.152 2.61627 10.9722 2.70635 10.8453C2.73813 10.8005 2.77724 10.7614 2.82204 10.7296C2.94899 10.6395 3.12878 10.6395 3.48836 10.6395C3.84795 10.6395 4.02774 10.6395 4.15469 10.7296C4.19948 10.7614 4.2386 10.8005 4.27038 10.8453C4.36045 10.9722 4.36045 11.152 4.36045 11.5116C4.36045 11.8712 4.36045 12.051 4.27038 12.1779C4.2386 12.2227 4.19948 12.2618 4.15469 12.2936C4.02774 12.3837 3.84795 12.3837 3.48836 12.3837C3.12878 12.3837 2.94899 12.3837 2.82204 12.2936C2.77724 12.2618 2.73813 12.2227 2.70635 12.1779C2.61627 12.051 2.61627 11.8712 2.61627 11.5116Z" fill="#9B87F6"/>
<path fill-rule="evenodd" clip-rule="evenodd" d="M5.26358 8.07899C5.70157 8.13787 6.09701 8.26741 6.41478 8.58518C6.73255 8.90295 6.86209 9.29839 6.92097 9.73638C6.97676 10.1513 6.97675 10.674 6.97673 11.3009L6.97673 12.1295C6.97674 12.565 6.97674 12.9286 6.94867 13.2238C6.91933 13.5324 6.85566 13.82 6.694 14.0838C6.5358 14.342 6.31875 14.559 6.06059 14.7172C5.79679 14.8789 5.50918 14.9426 5.20056 14.9719C4.90533 15 4.54185 15 4.10629 15H4.05511C3.39227 15 2.85771 15 2.42739 14.9591C1.98361 14.9169 1.59696 14.8275 1.24927 14.6144C0.897241 14.3987 0.601261 14.1027 0.385534 13.7507C0.172472 13.403 0.0830987 13.0163 0.0409037 12.5726C-1.15085e-05 12.1422 -6.2098e-06 11.6077 3.60649e-07 10.9449V10.8937C-9.37029e-06 10.4581 -1.74915e-05 10.0946 0.0280526 9.7994C0.0573965 9.49078 0.121068 9.20317 0.282726 8.93937C0.440925 8.68121 0.657977 8.46416 0.916135 8.30596C1.17994 8.1443 1.46755 8.08063 1.77617 8.05128C2.0714 8.02322 2.43488 8.02322 2.87044 8.02323H3.69906C4.3259 8.02321 4.84861 8.0232 5.26358 8.07899ZM5.12413 9.11616C4.78713 9.07085 4.33535 9.06974 3.66278 9.06974H2.89534C2.42845 9.06974 2.11503 9.07029 1.87523 9.0931C1.64321 9.11516 1.53467 9.15429 1.46293 9.19825C1.34559 9.27016 1.24693 9.36882 1.17502 9.48617C1.13106 9.5579 1.09192 9.66644 1.06986 9.89846C1.04706 10.1383 1.04651 10.4517 1.04651 10.9186C1.04651 11.6138 1.04706 12.0985 1.08271 12.4735C1.11763 12.8407 1.18247 13.0483 1.27783 13.2039C1.40727 13.4151 1.58485 13.5927 1.79607 13.7221C1.95169 13.8175 2.15927 13.8823 2.52645 13.9172C2.90141 13.9529 3.38612 13.9534 4.08138 13.9534C4.54827 13.9534 4.86169 13.9529 5.1015 13.9301C5.33352 13.908 5.44206 13.8689 5.51379 13.8249C5.63114 13.753 5.7298 13.6544 5.80171 13.537C5.84567 13.4653 5.8848 13.3568 5.90686 13.1247C5.92967 12.8849 5.93022 12.5715 5.93022 12.1046V11.3372C5.93022 10.6646 5.92911 10.2128 5.8838 9.87583C5.84051 9.55388 5.76571 9.41609 5.67479 9.32517C5.58387 9.23425 5.44608 9.15945 5.12413 9.11616Z" fill="#9B87F6"/>
<path d="M10.9616 8.02323L12.3837 8.02323V9.06974H10.9883C10.4875 9.06974 10.1513 9.07037 9.89497 9.09645C9.64739 9.12164 9.53299 9.16616 9.45733 9.21672C9.3621 9.28034 9.28034 9.3621 9.21672 9.45733C9.16616 9.53299 9.12164 9.64739 9.09645 9.89497C9.07037 10.1513 9.06974 10.4875 9.06974 10.9883H8.02323L8.02323 10.9616C8.02322 10.4945 8.02321 10.1046 8.05531 9.78906C8.08892 9.45873 8.16197 9.15219 8.34658 8.87592C8.48655 8.66642 8.66642 8.48655 8.87592 8.34658C9.15219 8.16197 9.45873 8.08892 9.78906 8.05531C10.1046 8.02321 10.4945 8.02322 10.9616 8.02323Z" fill="#9B87F6"/>
<path d="M8.02323 14.4767V12.3837H9.06974V14.4767C9.06974 14.7657 8.83547 15 8.54649 15C8.2575 15 8.02323 14.7657 8.02323 14.4767Z" fill="#9B87F6"/>
<path d="M15 8.54649C15 8.2575 14.7657 8.02323 14.4767 8.02323C14.1877 8.02323 13.9534 8.2575 13.9534 8.54649V10.9883H15V8.54649Z" fill="#9B87F6"/>
<path d="M13.9534 12.3837C13.9534 12.7159 13.9532 12.9389 13.9414 13.1115C13.9299 13.2795 13.9094 13.3613 13.8871 13.4151C13.7986 13.6288 13.6288 13.7986 13.4151 13.8871C13.3613 13.9094 13.2795 13.9299 13.1115 13.9414C12.9389 13.9532 12.7159 13.9534 12.3837 13.9534H10.9883V15H12.4013C12.7114 15 12.9703 15 13.1828 14.9855C13.404 14.9704 13.613 14.9378 13.8156 14.8539C14.2857 14.6592 14.6592 14.2857 14.8539 13.8156C14.9378 13.613 14.9704 13.404 14.9855 13.1828C15 12.9703 15 12.7114 15 12.4014V12.3837H13.9534Z" fill="#9B87F6"/>
<path d="M10.4082 10.6007C10.2907 10.7767 10.2907 11.0217 10.2907 11.5116C10.2907 12.0015 10.2907 12.2465 10.4082 12.4225C10.4591 12.4986 10.5246 12.564 10.6007 12.6149C10.7767 12.7325 11.0217 12.7325 11.5116 12.7325C12.0015 12.7325 12.2465 12.7325 12.4225 12.6149C12.4986 12.564 12.564 12.4986 12.6149 12.4225C12.7325 12.2465 12.7325 12.0015 12.7325 11.5116C12.7325 11.0217 12.7325 10.7767 12.6149 10.6007C12.564 10.5246 12.4986 10.4591 12.4225 10.4082C12.2465 10.2907 12.0015 10.2907 11.5116 10.2907C11.0217 10.2907 10.7767 10.2907 10.6007 10.4082C10.5246 10.4591 10.4591 10.5246 10.4082 10.6007Z" fill="#9B87F6"/>
</svg>
