<svg width="16" height="16" viewBox="0 0 16 16" fill="none" xmlns="http://www.w3.org/2000/svg">
<path fill-rule="evenodd" clip-rule="evenodd" d="M7.99992 14.6666C11.6818 14.6666 14.6666 11.6819 14.6666 7.99998C14.6666 4.31808 11.6818 1.33331 7.99992 1.33331C4.31802 1.33331 1.33325 4.31808 1.33325 7.99998C1.33325 11.6819 4.31802 14.6666 7.99992 14.6666ZM8.49992 5.99998C8.49992 5.72384 8.27606 5.49998 7.99992 5.49998C7.72378 5.49998 7.49992 5.72384 7.49992 5.99998L7.49992 7.5H5.99992C5.72378 7.5 5.49992 7.72385 5.49992 8C5.49992 8.27614 5.72378 8.5 5.99992 8.5H7.49992V9.99998C7.49992 10.2761 7.72378 10.5 7.99992 10.5C8.27606 10.5 8.49992 10.2761 8.49992 9.99998L8.49992 8.5H9.99992C10.2761 8.5 10.4999 8.27614 10.4999 8C10.4999 7.72385 10.2761 7.5 9.99992 7.5H8.49992V5.99998Z" fill="#EF7013"/>
</svg>
