<svg width="21" height="24" viewBox="0 0 21 24" fill="none" xmlns="http://www.w3.org/2000/svg">
<path fill-rule="evenodd" clip-rule="evenodd" d="M15.1463 5.61837C16.7663 5.61837 18.4835 6.50997 19.7063 8.05196C15.6983 10.2731 16.3499 16.0607 20.3999 17.6075C19.8419 18.8555 19.5755 19.4135 18.8579 20.5187C17.8559 22.0595 16.4459 23.9795 14.6951 23.9963C13.1411 24.0107 12.7415 22.9727 10.632 22.9847C8.52237 22.9967 8.08197 24.0143 6.52798 23.9999C4.77839 23.9831 3.4404 22.2503 2.4384 20.7083C-0.362385 16.3979 -0.655184 11.3399 1.07281 8.65196C2.3004 6.73917 4.23599 5.61957 6.05758 5.61957C7.91157 5.61957 9.07677 6.64797 10.6104 6.64797C12.0984 6.64797 13.0031 5.61837 15.1463 5.61837ZM14.6759 0C14.8919 1.45799 14.2991 2.88599 13.5203 3.89638C12.6863 4.97877 11.25 5.81757 9.86036 5.77437C9.60836 4.37878 10.2588 2.94239 11.0484 1.97399C11.916 0.905995 13.4039 0.0887996 14.6759 0Z" fill="black"/>
</svg>
