<svg width="22" height="22" viewBox="0 0 22 22" fill="none" xmlns="http://www.w3.org/2000/svg">
<path fill-rule="evenodd" clip-rule="evenodd" d="M14.0166 1.14716e-06H16.1695C17.0889 -2.89213e-05 17.8555 -5.39921e-05 18.4641 0.0817719C19.1065 0.16814 19.6865 0.358128 20.1526 0.824191C20.6186 1.29025 20.8086 1.87023 20.895 2.51263C20.9768 3.12124 20.9768 3.88789 20.9767 4.80726V20.4651H21.2326C21.6564 20.4651 22 20.8087 22 21.2326C22 21.6564 21.6564 22 21.2326 22H0.767442C0.343595 22 0 21.6564 0 21.2326C0 20.8087 0.343595 20.4651 0.767442 20.4651H1.02326L1.02325 7.87703C1.02322 6.95765 1.0232 6.19101 1.10503 5.5824C1.19139 4.94 1.38138 4.36002 1.84744 3.89396C2.31351 3.4279 2.89349 3.23791 3.53588 3.15154C4.14449 3.06971 4.91114 3.06974 5.83051 3.06977L9.23794 3.06977C9.29059 2.17526 9.4555 1.40218 10.0335 0.82419C10.4996 0.358128 11.0795 0.16814 11.7219 0.0817719C12.3305 -5.39921e-05 13.0972 -2.89213e-05 14.0166 1.14716e-06ZM9.98374 4.60465C9.98242 4.60465 9.98111 4.60465 9.97979 4.60465C9.97877 4.60465 9.97776 4.60465 9.97674 4.60465H5.88372C4.89729 4.60465 4.23467 4.60628 3.7404 4.67274C3.26821 4.73622 3.06612 4.84594 2.93277 4.97928C2.79942 5.11263 2.68971 5.31472 2.62622 5.78692C2.55977 6.28119 2.55814 6.9438 2.55814 7.93023V20.4651H7.16279V18.1628C7.16279 17.7389 7.50639 17.3954 7.93023 17.3954C8.35408 17.3954 8.69767 17.7389 8.69767 18.1628V20.4651H13.3023V7.93023C13.3023 6.9438 13.3007 6.28119 13.2342 5.78692C13.1708 5.31472 13.061 5.11263 12.9277 4.97928C12.7943 4.84594 12.5923 4.73622 12.1201 4.67274C11.627 4.60644 10.9663 4.60466 9.98374 4.60465ZM14.8372 20.4651L14.8372 7.87703C14.8372 6.95765 14.8373 6.19101 14.7554 5.5824C14.6691 4.94 14.4791 4.36002 14.013 3.89396C13.547 3.4279 12.967 3.23791 12.3246 3.15154C11.8893 3.09302 11.3733 3.07637 10.7783 3.07164C10.8297 2.35573 10.9423 2.08604 11.1188 1.90952C11.2522 1.77617 11.4543 1.66645 11.9264 1.60297C12.4207 1.53652 13.0833 1.53489 14.0698 1.53489H16.1163C17.1027 1.53489 17.7653 1.53652 18.2596 1.60297C18.7318 1.66645 18.9339 1.77617 19.0672 1.90952C19.2006 2.04286 19.3103 2.24495 19.3738 2.71715C19.4402 3.21142 19.4419 3.87404 19.4419 4.86047V20.4651H14.8372ZM4.09302 6.90698C4.09302 6.48313 4.43662 6.13954 4.86047 6.13954H11C11.4238 6.13954 11.7674 6.48313 11.7674 6.90698C11.7674 7.33083 11.4238 7.67442 11 7.67442H4.86047C4.43662 7.67442 4.09302 7.33083 4.09302 6.90698ZM4.09302 9.97675C4.09302 9.5529 4.43662 9.2093 4.86047 9.2093H11C11.4238 9.2093 11.7674 9.5529 11.7674 9.97675C11.7674 10.4006 11.4238 10.7442 11 10.7442H4.86047C4.43662 10.7442 4.09302 10.4006 4.09302 9.97675ZM4.09302 13.0465C4.09302 12.6227 4.43662 12.2791 4.86047 12.2791H11C11.4238 12.2791 11.7674 12.6227 11.7674 13.0465C11.7674 13.4704 11.4238 13.814 11 13.814H4.86047C4.43662 13.814 4.09302 13.4704 4.09302 13.0465Z" fill="#D52B1E"/>
</svg>
