<svg width="26" height="29" viewBox="0 0 26 29" fill="none" xmlns="http://www.w3.org/2000/svg">
<path d="M25.2353 19.9197V13.1332C25.2353 7.30107 25.2353 4.38771 23.4435 2.57553C21.6517 0.764706 18.7669 0.764706 13 0.764706C7.2331 0.764706 4.34829 0.764706 2.5565 2.57553C0.764706 4.38635 0.764706 7.30379 0.764706 13.1332V19.9211C0.764706 24.13 0.764706 26.2359 1.76256 27.1549C2.23838 27.594 2.83927 27.87 3.47958 27.9434C4.82139 28.097 6.38886 26.7103 9.52246 23.9384C10.9091 22.7135 11.6011 22.1003 12.4018 21.9399C12.7961 21.8584 13.2039 21.8584 13.5982 21.9399C14.4003 22.1003 15.0922 22.7135 16.4775 23.9384C19.6111 26.7103 21.1786 28.097 22.5204 27.942C23.1594 27.87 23.7616 27.594 24.2374 27.1549C25.2353 26.2359 25.2353 24.13 25.2353 19.9197Z" stroke="#7B7B7B" stroke-width="1.5"/>
</svg>
