<svg width="17" height="17" viewBox="0 0 17 17" fill="none" xmlns="http://www.w3.org/2000/svg">
<path fill-rule="evenodd" clip-rule="evenodd" d="M8.5 3C5.46243 3 3 5.46243 3 8.5C3 9.50076 3.26645 10.4381 3.73333 11.2464L11.2464 3.73333C10.4381 3.26645 9.50076 3 8.5 3ZM13.3392 5.88317L5.88317 13.3392C6.6613 13.761 7.55214 14 8.5 14C11.5376 14 14 11.5376 14 8.5C14 7.55214 13.761 6.6613 13.3392 5.88317ZM0 8.5C0 3.80558 3.80558 0 8.5 0C10.8781 0 13.0303 0.978568 14.5714 2.55117C16.0722 4.08272 17 6.1845 17 8.5C17 13.1944 13.1944 17 8.5 17C6.1845 17 4.08272 16.0722 2.55117 14.5714C0.978568 13.0303 0 10.8781 0 8.5Z" fill="#191F2D"/>
</svg>
