<svg width="49" height="48" viewBox="0 0 49 48" fill="none" xmlns="http://www.w3.org/2000/svg">
<path fill-rule="evenodd" clip-rule="evenodd" d="M33.5 31.5C30.4624 31.5 28 33.9624 28 37C28 38.0008 28.2665 38.9381 28.7333 39.7464L36.2464 32.2333C35.4381 31.7665 34.5008 31.5 33.5 31.5ZM38.3392 34.3832L30.8832 41.8392C31.6613 42.261 32.5521 42.5 33.5 42.5C36.5376 42.5 39 40.0376 39 37C39 36.0521 38.761 35.1613 38.3392 34.3832ZM25 37C25 32.3056 28.8056 28.5 33.5 28.5C35.8781 28.5 38.0303 29.4786 39.5714 31.0512C41.0722 32.5827 42 34.6845 42 37C42 41.6944 38.1944 45.5 33.5 45.5C31.1845 45.5 29.0827 44.5722 27.5512 43.0714C25.9786 41.5303 25 39.3781 25 37Z" fill="#191F2D"/>
<path d="M32.5 12C32.5 16.4183 28.9183 20 24.5 20C20.0817 20 16.5 16.4183 16.5 12C16.5 7.58172 20.0817 4 24.5 4C28.9183 4 32.5 7.58172 32.5 12Z" fill="#191F2D"/>
<path d="M29.0902 26.3758C24.9273 28.1057 22 32.211 22 37C22 39.6327 22.8886 42.063 24.3756 43.9999C8.5 43.979 8.5 39.9576 8.5 35C8.5 30.0294 15.6634 26 24.5 26C26.0954 26 27.6362 26.1313 29.0902 26.3758Z" fill="#191F2D"/>
</svg>
