<svg fill="#000000" height="800px" width="800px" version="1.1" id="Icons" xmlns="http://www.w3.org/2000/svg" xmlns:xlink="http://www.w3.org/1999/xlink" 
	 viewBox="0 0 32 32" xml:space="preserve">
<g>
	<path d="M29,1H3C1.9,1,1,1.9,1,3v26c0,1.1,0.9,2,2,2h26c1.1,0,2-0.9,2-2V3C31,1.9,30.1,1,29,1z M29,29H3V11h26V29z M3,9V3h26l0,6
		H3z"/>
	<path d="M8,21c-1.1,0-2,0.9-2,2s0.9,2,2,2s2-0.9,2-2S9.1,21,8,21z"/>
	<path d="M14,21c-1.1,0-2,0.9-2,2s0.9,2,2,2s2-0.9,2-2S15.1,21,14,21z"/>
	<path d="M20,21c-1.1,0-2,0.9-2,2s0.9,2,2,2s2-0.9,2-2S21.1,21,20,21z"/>
</g>
</svg>
