<svg width="18" height="22" viewBox="0 0 18 22" fill="none" xmlns="http://www.w3.org/2000/svg">
<path fill-rule="evenodd" clip-rule="evenodd" d="M7.8181 1.16985e-06H10.0136C10.9512 -2.94933e-05 11.733 -5.506e-05 12.3536 0.0833893C13.0087 0.171465 13.6002 0.365211 14.0755 0.840492C14.5507 1.31577 14.7445 1.90722 14.8326 2.56232C14.916 3.18298 14.916 3.96478 14.9159 4.90234L14.9159 6.2934L15.7919 6.77105C17.0493 7.45668 17.8317 8.77444 17.8317 10.2066V15.359C17.8317 16.7912 17.0493 18.1089 15.7919 18.7946L10.7892 21.5224C9.62146 22.1592 8.21026 22.1592 7.04253 21.5224L2.03978 18.7946C0.782387 18.1089 0 16.7912 0 15.359V10.2066C0 8.77444 0.782389 7.45668 2.03978 6.77105L2.91576 6.2934L2.91576 4.90234C2.91573 3.96478 2.9157 3.18297 2.99915 2.56232C3.08722 1.90722 3.28097 1.31577 3.75625 0.840492C4.23153 0.365211 4.82298 0.171465 5.47808 0.0833893C6.09873 -5.506e-05 6.88054 -2.94933e-05 7.8181 1.16985e-06ZM4.481 5.43992L7.04253 4.04318C8.21026 3.40645 9.62145 3.40645 10.7892 4.04318L13.3507 5.43992V4.9566C13.3507 3.95066 13.349 3.27494 13.2813 2.77089C13.2165 2.28936 13.1046 2.08327 12.9687 1.94728C12.8327 1.8113 12.6266 1.69941 12.1451 1.63467C11.641 1.56691 10.9653 1.56524 9.95935 1.56524H7.87236C6.86642 1.56524 6.19069 1.56691 5.68665 1.63467C5.20512 1.69941 4.99903 1.8113 4.86304 1.94728C4.72706 2.08327 4.61517 2.28936 4.55043 2.77089C4.48267 3.27494 4.481 3.95066 4.481 4.9566V5.43992ZM10.0398 5.4174C9.33921 5.03536 8.4925 5.03536 7.79186 5.4174L2.78911 8.14528C2.03467 8.55665 1.56524 9.34731 1.56524 10.2066V15.359C1.56524 16.2183 2.03467 17.009 2.78911 17.4203L7.79186 20.1482C8.49249 20.5303 9.33921 20.5303 10.0399 20.1482L15.0426 17.4203C15.797 17.009 16.2665 16.2183 16.2665 15.359V10.2066C16.2665 9.34731 15.797 8.55665 15.0426 8.14527L10.0398 5.4174ZM8.91585 10.732C8.85519 10.837 8.78774 10.9579 8.70824 11.1005L8.60566 11.2846C8.59842 11.2976 8.59066 11.3117 8.58235 11.3269C8.5004 11.4768 8.3647 11.725 8.13842 11.8967C7.90741 12.0721 7.62953 12.1324 7.46705 12.1677C7.45077 12.1713 7.43566 12.1745 7.42186 12.1777L7.22265 12.2227C7.03986 12.2641 6.89096 12.2978 6.76365 12.3298C6.84646 12.4318 6.95403 12.5584 7.09394 12.722L7.22975 12.8808C7.23939 12.892 7.24987 12.9041 7.26102 12.917C7.37365 13.0467 7.55549 13.2562 7.63959 13.5266C7.72269 13.7938 7.69402 14.069 7.67594 14.2426C7.67413 14.26 7.67244 14.2763 7.67096 14.2915L7.65043 14.5033C7.63139 14.6998 7.61659 14.8566 7.60674 14.9841C7.71548 14.9362 7.83918 14.8793 7.98613 14.8116L8.17265 14.7257C8.18549 14.7198 8.19956 14.7132 8.21477 14.706C8.36452 14.6354 8.62506 14.5125 8.91585 14.5125C9.20664 14.5125 9.46719 14.6354 9.61694 14.706C9.63215 14.7132 9.64622 14.7198 9.65906 14.7257L9.84558 14.8116C9.99253 14.8793 10.1162 14.9362 10.225 14.9841C10.2151 14.8566 10.2003 14.6998 10.1813 14.5033L10.1607 14.2915C10.1593 14.2763 10.1576 14.26 10.1558 14.2426C10.1377 14.069 10.109 13.7938 10.1921 13.5266C10.2762 13.2562 10.4581 13.0467 10.5707 12.917C10.5818 12.9041 10.5923 12.892 10.602 12.8808L10.7378 12.722C10.8777 12.5584 10.9852 12.4318 11.0681 12.3298C10.9407 12.2978 10.7918 12.2641 10.6091 12.2227L10.4098 12.1777C10.3961 12.1745 10.3809 12.1713 10.3647 12.1677C10.2022 12.1324 9.9243 12.0721 9.69329 11.8967C9.46701 11.725 9.33131 11.4768 9.24936 11.3269C9.24105 11.3117 9.23329 11.2976 9.22605 11.2846L9.12347 11.1005C9.04397 10.9579 8.97652 10.837 8.91585 10.732ZM7.88644 9.44341C8.0661 9.2088 8.39233 8.86987 8.91585 8.86987C9.43937 8.86987 9.76561 9.2088 9.94527 9.44341C10.1167 9.66732 10.2894 9.97727 10.4665 10.295C10.4745 10.3095 10.4826 10.3239 10.4906 10.3384L10.5932 10.5224C10.617 10.5651 10.6357 10.5987 10.6521 10.6274C10.6806 10.6341 10.7138 10.6416 10.7553 10.651L10.9545 10.6961C10.9708 10.6998 10.9871 10.7035 11.0034 10.7072C11.3455 10.7845 11.6855 10.8613 11.9464 10.9641C12.2346 11.0777 12.6251 11.2988 12.7757 11.7829C12.9236 12.2584 12.7369 12.6613 12.574 12.9202C12.4231 13.1598 12.1939 13.4277 11.9592 13.702C11.9486 13.7144 11.938 13.7268 11.9273 13.7393L11.7915 13.8981C11.7556 13.9401 11.7284 13.9719 11.7056 13.9993C11.7087 14.0373 11.713 14.0814 11.7187 14.1405L11.7392 14.3524C11.7408 14.3685 11.7424 14.3847 11.7439 14.4008C11.7796 14.768 11.814 15.1229 11.8014 15.4068C11.7881 15.7045 11.7167 16.1551 11.3127 16.4617C10.8959 16.7781 10.4356 16.7092 10.1437 16.6255C9.87478 16.5485 9.55701 16.4021 9.23694 16.2546C9.22162 16.2475 9.20628 16.2405 9.19095 16.2334L9.00443 16.1475C8.96953 16.1314 8.94085 16.1183 8.91586 16.1069C8.89086 16.1183 8.86218 16.1314 8.82728 16.1475L8.64076 16.2334C8.62543 16.2405 8.61009 16.2475 8.59477 16.2546C8.2747 16.4021 7.95693 16.5485 7.68797 16.6255C7.39608 16.7092 6.93579 16.7781 6.51901 16.4617C6.11501 16.1551 6.04357 15.7045 6.03031 15.4068C6.01766 15.1229 6.05212 14.768 6.08779 14.4008C6.08935 14.3847 6.09092 14.3685 6.09249 14.3524L6.11302 14.1405C6.11874 14.0814 6.12301 14.0373 6.12612 13.9993C6.10327 13.9719 6.07616 13.9401 6.04017 13.8981L5.90436 13.7393C5.89374 13.7268 5.88312 13.7144 5.87251 13.702C5.63781 13.4277 5.40857 13.1598 5.25774 12.9202C5.09476 12.6613 4.90814 12.2584 5.05603 11.7829C5.20656 11.2988 5.59715 11.0777 5.8853 10.9641C6.14626 10.8613 6.48621 10.7845 6.82828 10.7072C6.84459 10.7035 6.86091 10.6998 6.87723 10.6961L7.07644 10.651C7.1179 10.6416 7.15106 10.6341 7.17958 10.6274C7.19596 10.5987 7.2147 10.5651 7.23849 10.5224L7.34107 10.3384C7.34914 10.3239 7.35719 10.3095 7.36524 10.295C7.54228 9.97727 7.71497 9.66732 7.88644 9.44341Z" fill="url(#paint0_linear_0_6)"/>
<defs>
<linearGradient id="paint0_linear_0_6" x1="0" y1="11" x2="17.8317" y2="11" gradientUnits="userSpaceOnUse">
<stop stop-color="#C4CBF2"/>
<stop offset="0.44" stop-color="#DCC2FF"/>
<stop offset="0.71" stop-color="#E1DAF4"/>
<stop offset="1" stop-color="#D2D3F3"/>
</linearGradient>
</defs>
</svg>
