<svg width="16" height="16" viewBox="0 0 16 16" fill="none" xmlns="http://www.w3.org/2000/svg">
<path d="M10.6667 8.66667C10.6667 9.92183 9.71371 10.9333 8.5 11.0833V12.6667C8.5 13.0349 8.20191 13.3333 7.83333 13.3333C7.46476 13.3333 7.16667 13.0349 7.16667 12.6667V11.0833C5.95296 10.9333 5 9.92183 5 8.66667M10.6667 7C10.6667 5.74484 9.71371 4.73333 8.5 4.58333V3C8.5 2.62843 8.20191 2.33333 7.83333 2.33333C7.46476 2.33333 7.16667 2.62843 7.16667 3V4.58333C5.95296 4.73333 5 5.74484 5 7M2.33333 8C2.33333 11.1421 4.85786 13.6667 8 13.6667C11.1421 13.6667 13.6667 11.1421 13.6667 8C13.6667 4.85786 11.1421 2.33333 8 2.33333C4.85786 2.33333 2.33333 4.85786 2.33333 8Z" stroke="#D97706" stroke-width="1.5" stroke-linecap="round" stroke-linejoin="round"/>
</svg>
