<svg width="22" height="16" viewBox="0 0 22 16" fill="none" xmlns="http://www.w3.org/2000/svg">
<path d="M18.9922 7.64302C19.2746 7.38995 19.5379 7.13888 19.7806 6.89122C20.5345 6.12182 21.1234 5.35067 21.4527 4.62306C21.7767 3.90702 21.9112 3.07875 21.4649 2.36546C21.0451 1.69443 20.2797 1.40411 19.5094 1.30066C18.7184 1.19444 17.7593 1.25995 16.7124 1.45331L15.8241 1.61757C14.4829 0.602287 12.8118 0 11 0C6.58172 0 3 3.58172 3 8C3 8.08666 3.00138 8.17299 3.00411 8.25898L2.47686 8.85221C1.63744 9.66928 0.979631 10.4875 0.604623 11.2551C0.23859 12.0043 0.0642285 12.882 0.535027 13.6345C0.967791 14.3262 1.76731 14.614 2.56745 14.709C3.39197 14.807 4.39463 14.7249 5.49015 14.5079C5.70545 14.4652 5.92586 14.417 6.15091 14.3634C5.66714 13.9942 5.22672 13.5711 4.83861 13.103C3.98624 13.2488 3.27918 13.283 2.74441 13.2195C2.1117 13.1443 1.87948 12.9553 1.80665 12.8389C1.74418 12.7391 1.67513 12.481 1.95236 11.9136C2.19339 11.4203 2.64038 10.822 3.29375 10.1555C3.59947 11.2508 4.13243 12.2513 4.83861 13.103C4.95588 13.083 5.0759 13.0608 5.1986 13.0365C7.21962 12.636 9.81185 11.685 12.4782 10.2644C15.1438 8.84432 17.3267 7.25151 18.7062 5.84443C18.4005 4.74914 17.8675 3.74864 17.1614 2.89695C18.0459 2.74568 18.7713 2.715 19.3097 2.78731C19.9042 2.86715 20.1231 3.04882 20.1933 3.16105C20.2526 3.25586 20.3187 3.4905 20.0861 4.00467C19.8587 4.50726 19.4027 5.13359 18.7092 5.84143L18.7062 5.84443C18.867 6.42037 18.9649 7.02251 18.9922 7.64302Z" fill="#9B87F6"/>
<path d="M11 16C15.4183 16 19 12.4183 19 8C19 7.88037 18.9974 7.76136 18.9922 7.64302C17.5107 8.97036 15.5025 10.3528 13.1835 11.5883C10.6919 12.9158 8.22452 13.8695 6.15091 14.3634C7.49628 15.3902 9.17692 16 11 16Z" fill="#9B87F6"/>
</svg>
