<svg width="21" height="22" viewBox="0 0 21 22" fill="none" xmlns="http://www.w3.org/2000/svg">
<path fill-rule="evenodd" clip-rule="evenodd" d="M4.12092 0.417343C4.12091 0.417312 4.12093 0.417373 4.12092 0.417343C4.07276 0.17433 3.8591 -0.000833973 3.61133 2.98654e-06C3.36351 0.00084007 3.15105 0.177206 3.1046 0.420626L3.10425 0.422406L3.10228 0.432326C3.1004 0.441608 3.09742 0.45611 3.09331 0.475261C3.08508 0.513598 3.07239 0.570369 3.05511 0.641045C3.02042 0.782918 2.96791 0.978133 2.89688 1.19127C2.74708 1.6408 2.54299 2.08175 2.30874 2.31759C2.07449 2.55343 1.63492 2.7605 1.18642 2.91333C0.973764 2.9858 0.778909 3.03963 0.637273 3.07527C0.566715 3.09303 0.510031 3.10611 0.471751 3.11459C0.452627 3.11883 0.438146 3.12191 0.428877 3.12385L0.418971 3.12589L0.417342 3.12622C0.174241 3.17431 -0.000834156 3.38799 2.98936e-06 3.63581C0.000840073 3.88364 0.177206 4.09609 0.420626 4.14254L0.422406 4.14289L0.432326 4.14487C0.441608 4.14674 0.456109 4.14973 0.475261 4.15383C0.513598 4.16206 0.570369 4.17475 0.641045 4.19203C0.782918 4.22672 0.978133 4.27923 1.19127 4.35026C1.6408 4.50006 2.08175 4.70416 2.31759 4.9384C2.55343 5.17265 2.7605 5.61222 2.91333 6.06072C2.9858 6.27338 3.03963 6.46823 3.07527 6.60987C3.09303 6.68043 3.10611 6.73711 3.11459 6.77539C3.11883 6.79452 3.12191 6.809 3.12385 6.81827L3.12589 6.82817L3.12622 6.8298C3.17431 7.0729 3.38799 7.24798 3.63581 7.24714C3.88364 7.2463 4.09609 7.06994 4.14254 6.82652L4.14289 6.82474L4.14487 6.81482C4.14674 6.80553 4.14973 6.79103 4.15383 6.77188C4.16206 6.73354 4.17475 6.67677 4.19203 6.6061C4.22672 6.46422 4.27923 6.26901 4.35026 6.05587C4.50006 5.60634 4.70416 5.16539 4.9384 4.92955C5.17265 4.69371 5.61222 4.48665 6.06072 4.33381C6.27338 4.26135 6.46823 4.20751 6.60987 4.17187C6.68043 4.15411 6.73711 4.14104 6.77539 4.13255C6.79452 4.12831 6.809 4.12523 6.81827 4.1233L6.82817 4.12125L6.8298 4.12092C6.82975 4.12093 6.82985 4.12091 6.8298 4.12092C7.07279 4.07274 7.24798 3.85908 7.24714 3.61133C7.2463 3.36351 7.06994 3.15105 6.82652 3.1046L6.82474 3.10425L6.81482 3.10228C6.80553 3.1004 6.79103 3.09742 6.77188 3.09331C6.73354 3.08508 6.67677 3.07239 6.6061 3.05511C6.46422 3.02042 6.26901 2.96791 6.05587 2.89688C5.60634 2.74708 5.16539 2.54299 4.92955 2.30874C4.69371 2.07449 4.48665 1.63492 4.33381 1.18642C4.26135 0.973764 4.20751 0.778909 4.17187 0.637273C4.15411 0.566715 4.14104 0.510031 4.13255 0.471751C4.12831 0.452627 4.12523 0.438146 4.1233 0.428877L4.12125 0.418971L4.12092 0.417343ZM5.069 3.61869C4.75552 3.47142 4.44062 3.28232 4.19996 3.04328C3.95929 2.80424 3.76808 2.49062 3.61869 2.17814C3.47142 2.49163 3.28232 2.80652 3.04328 3.04719C2.80424 3.28785 2.49062 3.47907 2.17814 3.62845C2.49163 3.77573 2.80652 3.96482 3.04719 4.20386C3.28785 4.44291 3.47907 4.75652 3.62845 5.069C3.77573 4.75552 3.96482 4.44062 4.20386 4.19996C4.44291 3.95929 4.75652 3.76808 5.069 3.61869Z" fill="#FEDDDB"/>
<path fill-rule="evenodd" clip-rule="evenodd" d="M18.1179 1.81179C18.5467 1.81179 18.8943 2.15943 18.8943 2.58827V2.84709H19.1532C19.582 2.84709 19.9296 3.19473 19.9296 3.62357C19.9296 4.05241 19.582 4.40005 19.1532 4.40005H18.8943V4.65888C18.8943 5.08771 18.5467 5.43536 18.1179 5.43536C17.689 5.43536 17.3414 5.08771 17.3414 4.65888V4.40005H17.0825C16.6537 4.40005 16.3061 4.05241 16.3061 3.62357C16.3061 3.19473 16.6537 2.84709 17.0825 2.84709H17.3414V2.58827C17.3414 2.15943 17.689 1.81179 18.1179 1.81179ZM10.8578 4.84552C10.5177 5.2896 10.1313 5.97855 9.56134 7.00105L9.27297 7.51837C9.25436 7.55174 9.23594 7.58493 9.21764 7.61789C8.95759 8.08633 8.72247 8.50986 8.34217 8.79856C7.9573 9.09072 7.48907 9.19573 6.98199 9.30946C6.94633 9.31745 6.91048 9.32549 6.87445 9.33365L6.31445 9.46035C5.2058 9.71119 4.4649 9.88111 3.96049 10.0799C3.47071 10.2729 3.40508 10.4164 3.38025 10.4962C3.35279 10.5845 3.33011 10.7568 3.62398 11.2236C3.92313 11.6988 4.4304 12.2951 5.1849 13.1774L5.56667 13.6238C5.5905 13.6517 5.6142 13.6793 5.63774 13.7067C5.98682 14.1136 6.29823 14.4766 6.44132 14.9367C6.58344 15.3937 6.53629 15.8727 6.4828 16.4161C6.47919 16.4527 6.47555 16.4896 6.47195 16.5269L6.41423 17.1225C6.30026 18.2986 6.22491 19.0958 6.25036 19.6671C6.27575 20.237 6.39515 20.3524 6.45033 20.3943C6.49283 20.4266 6.60691 20.5103 7.1168 20.3642C7.63667 20.2152 8.33209 19.8975 9.37019 19.4195L9.89451 19.1781C9.92894 19.1622 9.96318 19.1464 9.99725 19.1306C10.4686 18.9124 10.9078 18.7091 11.3884 18.7091C11.869 18.7091 12.3082 18.9124 12.7795 19.1306C12.8136 19.1464 12.8478 19.1622 12.8822 19.1781L13.4065 19.4195C14.4446 19.8975 15.1401 20.2152 15.6599 20.3642C16.1698 20.5103 16.2839 20.4266 16.3264 20.3943C16.3816 20.3524 16.501 20.237 16.5264 19.6671C16.5518 19.0958 16.4765 18.2986 16.3625 17.1225L16.3048 16.5269C16.3012 16.4896 16.2975 16.4527 16.2939 16.4161C16.2404 15.8727 16.1933 15.3937 16.3354 14.9367C16.4785 14.4766 16.7899 14.1136 17.139 13.7067C17.1625 13.6793 17.1862 13.6517 17.2101 13.6238L17.5918 13.1774C18.3463 12.2951 18.8536 11.6988 19.1528 11.2236C19.4466 10.7568 19.4239 10.5845 19.3965 10.4962C19.3717 10.4164 19.306 10.2729 18.8162 10.0799C18.3118 9.88111 17.5709 9.71119 16.4623 9.46035L15.9023 9.33365C15.8663 9.32549 15.8304 9.31745 15.7947 9.30945C15.2877 9.19573 14.8194 9.09072 14.4346 8.79855C14.0543 8.50986 13.8191 8.08632 13.5591 7.61789C13.5408 7.58493 13.5224 7.55174 13.5038 7.51837L13.2154 7.00104C12.6454 5.97855 12.2591 5.2896 11.919 4.84552C11.5793 4.40194 11.4326 4.40005 11.3884 4.40005C11.3441 4.40005 11.1974 4.40194 10.8578 4.84552ZM9.6248 3.90133C10.0508 3.3451 10.5994 2.84709 11.3884 2.84709C12.1774 2.84709 12.726 3.3451 13.1519 3.90132C13.5693 4.44639 14.0099 5.23679 14.5406 6.18886L14.8602 6.76223C15.2107 7.39099 15.2867 7.49572 15.3736 7.56163C15.4555 7.62384 15.5632 7.6647 16.245 7.81897L16.8692 7.96021C17.8967 8.19264 18.7565 8.38713 19.3856 8.63508C20.0425 8.89394 20.6467 9.28691 20.8794 10.0351C21.1094 10.7748 20.8466 11.4479 20.467 12.0509C20.0998 12.6342 19.516 13.3168 18.8132 14.1386L18.3903 14.6331C17.9291 15.1725 17.8542 15.2824 17.8183 15.3979C17.7814 15.5167 17.7808 15.6581 17.8505 16.3771L17.9142 17.0346C18.0207 18.133 18.1087 19.0414 18.0778 19.7362C18.0462 20.4453 17.8843 21.1614 17.2654 21.6312C16.6338 22.1107 15.9041 22.0496 15.2322 21.8571C14.5837 21.6712 13.7792 21.3008 12.8174 20.8579L12.2327 20.5887C11.5917 20.2935 11.4835 20.2621 11.3884 20.2621C11.2932 20.2621 11.185 20.2935 10.544 20.5887L9.95929 20.8579C8.99749 21.3008 8.19302 21.6712 7.54456 21.857C6.87259 22.0496 6.14295 22.1107 5.51134 21.6312C4.89241 21.1614 4.73053 20.4453 4.69894 19.7362C4.66799 19.0414 4.75603 18.1331 4.8625 17.0347L4.92623 16.3771C4.9959 15.6581 4.99535 15.5167 4.9584 15.3979C4.92249 15.2824 4.84768 15.1725 4.38642 14.6331L3.96354 14.1386C3.26073 13.3168 2.67691 12.6342 2.30974 12.0509C1.93016 11.4479 1.66731 10.7748 1.89734 10.0351C2.13 9.28691 2.73425 8.89394 3.39111 8.63508C4.02027 8.38713 4.88003 8.19264 5.90748 7.96022L6.53174 7.81898C7.21358 7.6647 7.32124 7.62384 7.40318 7.56163C7.49001 7.49572 7.56602 7.39099 7.91652 6.76223L8.23614 6.18886C8.76682 5.23679 9.20739 4.44639 9.6248 3.90133Z" fill="#FEDDDB"/>
</svg>
