<svg width="16" height="16" viewBox="0 0 16 16" fill="none" xmlns="http://www.w3.org/2000/svg">
<path d="M6.16666 9.33329C7.27123 9.33329 8.16666 10.2287 8.16666 11.3333C8.16666 12.4379 7.27123 13.3333 6.16666 13.3333C5.06209 13.3333 4.16666 12.4379 4.16666 11.3333C4.16666 10.2287 5.06209 9.33329 6.16666 9.33329Z" fill="#EF7013"/>
<path d="M9.49999 2.66663C8.39542 2.66663 7.49999 3.56206 7.49999 4.66663C7.49999 5.77119 8.39542 6.66663 9.49999 6.66663C10.6046 6.66663 11.5 5.7712 11.5 4.66663C11.5 3.56206 10.6046 2.66663 9.49999 2.66663Z" fill="#EF7013"/>
<path d="M5.83332 4.13897C6.10947 4.13897 6.33332 4.36283 6.33332 4.63897C6.33332 4.91512 6.10947 5.13897 5.83332 5.13897L1.16666 5.13897C0.890514 5.13897 0.666656 4.91511 0.666656 4.63897C0.666656 4.36283 0.890514 4.13897 1.16666 4.13897H5.83332Z" fill="#EF7013"/>
<path d="M9.83332 10.8056C9.55718 10.8056 9.33332 11.0295 9.33332 11.3056C9.33332 11.5818 9.55718 11.8056 9.83332 11.8056H14.5C14.7761 11.8056 15 11.5818 15 11.3056C15 11.0295 14.7761 10.8056 14.5 10.8056H9.83332Z" fill="#EF7013"/>
<path d="M0.666656 11.3056C0.666656 11.0295 0.890514 10.8056 1.16666 10.8056H2.49999C2.77613 10.8056 2.99999 11.0295 2.99999 11.3056C2.99999 11.5818 2.77613 11.8056 2.49999 11.8056H1.16666C0.890514 11.8056 0.666656 11.5818 0.666656 11.3056Z" fill="#EF7013"/>
<path d="M14.5 4.13897C14.7761 4.13897 15 4.36283 15 4.63897C15 4.91512 14.7761 5.13897 14.5 5.13897L13.1667 5.13897C12.8905 5.13897 12.6667 4.91512 12.6667 4.63897C12.6667 4.36283 12.8905 4.13897 13.1667 4.13897H14.5Z" fill="#EF7013"/>
</svg>
