<svg width="19" height="10" viewBox="0 0 19 10" fill="none" xmlns="http://www.w3.org/2000/svg">
<path d="M6.89106 0.666944C9.55067 -0.246112 12.4427 -0.221 15.0861 0.738105C16.5378 1.28155 17.8679 2.10639 18.9999 3.16526C18.6153 3.57684 18.2095 3.9615 17.8171 4.36153C17.0709 5.10648 16.3253 5.84886 15.5804 6.58868C14.8377 5.87849 13.9394 5.35162 12.957 5.05006C11.6999 4.67049 10.3626 4.6445 9.09169 4.97495C7.8208 5.30539 6.66548 5.9795 5.75248 6.92332C4.95555 7.73405 4.35201 8.7143 3.98693 9.79091L0 6.70407C1.42708 3.87411 3.89797 1.7094 6.89106 0.666944Z" fill="#E33629"/>
</svg>
