<svg width="24" height="24" viewBox="0 0 24 24" fill="none" xmlns="http://www.w3.org/2000/svg">
<path d="M8.07042 0.656959C5.64414 1.49866 3.55173 3.09623 2.10051 5.21501C0.649298 7.33379 -0.0842223 9.86211 0.00769542 12.4286C0.0996132 14.9951 1.01212 17.4644 2.61119 19.474C4.21026 21.4835 6.41161 22.9273 8.89188 23.5933C10.9027 24.1121 13.0094 24.1349 15.031 23.6597C16.8623 23.2483 18.5554 22.3684 19.9446 21.1061C21.3903 19.7522 22.4397 18.0299 22.98 16.1243C23.5672 14.052 23.6717 11.8727 23.2854 9.7537H11.9937V14.4377H18.5331C18.4024 15.1848 18.1223 15.8978 17.7096 16.5341C17.297 17.1704 16.7601 17.7169 16.1313 18.1409C15.3328 18.6691 14.4326 19.0245 13.4886 19.1843C12.5419 19.3604 11.5707 19.3604 10.624 19.1843C9.66437 18.9859 8.75661 18.5899 7.95849 18.0214C6.67631 17.1138 5.71357 15.8244 5.20765 14.3372C4.69318 12.8221 4.69318 11.1796 5.20765 9.66454C5.56778 8.60255 6.16311 7.63562 6.94922 6.83591C7.84882 5.90394 8.98774 5.23777 10.241 4.91047C11.4943 4.58318 12.8135 4.60741 14.054 4.98052C15.023 5.27797 15.9091 5.79769 16.6417 6.49822C17.379 5.76467 18.1151 5.02921 18.8499 4.29186C19.2293 3.89536 19.6429 3.51783 20.0167 3.11185C18.8984 2.07123 17.5858 1.26149 16.1541 0.72905C13.5469 -0.217637 10.6941 -0.243078 8.07042 0.656959Z" fill="white"/>
</svg>
