<svg width="19" height="10" viewBox="0 0 19 10" fill="none" xmlns="http://www.w3.org/2000/svg">
<path d="M0 3.103C1.33408 2.07381 2.66752 1.03948 4.00032 0C4.51596 1.51329 5.49664 2.82491 6.80228 3.74752C7.61664 4.32309 8.54199 4.72267 9.51933 4.9208C10.4824 5.09987 11.4702 5.09987 12.4332 4.9208C13.3934 4.75826 14.3091 4.39674 15.1213 3.85945C16.4123 4.86677 17.7091 5.86636 19.0001 6.87368C17.5873 8.15835 15.8651 9.05404 14.0021 9.47302C11.9458 9.95643 9.80285 9.93325 7.75749 9.40548C6.13981 8.97355 4.62878 8.21213 3.31913 7.16893C1.93293 6.06838 0.800749 4.68146 0 3.103Z" fill="#319F43"/>
</svg>
