<svg width="18" height="14" viewBox="0 0 18 14" fill="none" xmlns="http://www.w3.org/2000/svg">
<path d="M18 8.33797V2.67127C18 1.62768 18 1.10589 17.7169 0.713061C17.4881 0.395731 17.1212 0.227068 16.4667 0C16.3328 1.60621 15.8009 3.24651 14.9655 4.68214C13.9928 6.35376 12.5484 7.84831 10.697 8.65597C9.61802 9.12666 8.38198 9.12666 7.30302 8.65597C5.45164 7.84831 4.00718 6.35376 3.03449 4.68214C2.40086 3.59322 1.9418 2.38654 1.69862 1.16631C1.31607 1.10996 1.0225 1.13887 0.769166 1.28021C0.668088 1.3366 0.573877 1.40451 0.488414 1.48256C0 1.92865 0 2.7581 0 4.41699V9.34671C0 10.3903 0 10.9121 0.283137 11.3049C0.566273 11.6977 1.06129 11.8628 2.05132 12.1928L2.43488 12.3206L2.43489 12.3206C4.01186 12.8463 4.80035 13.1091 5.60688 13.1106C5.8498 13.1111 6.09242 13.0938 6.33284 13.059C7.13104 12.9435 7.8809 12.5685 9.38062 11.8187C10.5299 11.244 11.1046 10.9567 11.715 10.8234C11.9292 10.7766 12.1463 10.744 12.3648 10.7257C12.9875 10.6736 13.6157 10.7783 14.8721 10.9877C16.1455 11.1999 16.7821 11.306 17.247 11.0391C17.4048 10.9484 17.5449 10.8298 17.6603 10.689C18 10.2743 18 9.62888 18 8.33797Z" fill="#D52B1E"/>
</svg>
