<svg width="21" height="22" viewBox="0 0 21 22" fill="none" xmlns="http://www.w3.org/2000/svg">
<path fill-rule="evenodd" clip-rule="evenodd" d="M4.12091 0.417342C4.12091 0.417311 4.12092 0.417372 4.12091 0.417342C4.07276 0.174329 3.85909 -0.000833972 3.61133 2.98654e-06C3.3635 0.000840069 3.15104 0.177206 3.1046 0.420626L3.10425 0.422405L3.10227 0.432325C3.1004 0.441607 3.09741 0.456109 3.0933 0.475261C3.08508 0.513597 3.07238 0.570368 3.05511 0.641044C3.02042 0.782917 2.96791 0.978131 2.89688 1.19127C2.74708 1.6408 2.54298 2.08175 2.30873 2.31759C2.07449 2.55342 1.63492 2.76049 1.18642 2.91333C0.973762 2.98579 0.778907 3.03962 0.637272 3.07527C0.566714 3.09302 0.51003 3.1061 0.47175 3.11459C0.452627 3.11882 0.438145 3.12191 0.428876 3.12384L0.41897 3.12589L0.417342 3.12622C0.17424 3.17431 -0.000834154 3.38798 2.98936e-06 3.63581C0.000840071 3.88363 0.177206 4.09609 0.420626 4.14254L0.422405 4.14288L0.432325 4.14486C0.441607 4.14674 0.456109 4.14972 0.475261 4.15383C0.513597 4.16205 0.570368 4.17475 0.641044 4.19203C0.782917 4.22671 0.978131 4.27923 1.19127 4.35025C1.6408 4.50006 2.08175 4.70415 2.31759 4.9384C2.55342 5.17265 2.76049 5.61221 2.91333 6.06071C2.98579 6.27337 3.03962 6.46822 3.07527 6.60986C3.09302 6.68042 3.1061 6.7371 3.11459 6.77538C3.11882 6.79451 3.12191 6.80899 3.12384 6.81826L3.12589 6.82816L3.12622 6.82979C3.17431 7.07289 3.38798 7.24797 3.63581 7.24713C3.88363 7.24629 4.09609 7.06993 4.14254 6.82651L4.14288 6.82473L4.14486 6.81481C4.14674 6.80552 4.14972 6.79102 4.15383 6.77187C4.16205 6.73353 4.17475 6.67676 4.19203 6.60609C4.22671 6.46421 4.27923 6.269 4.35025 6.05586C4.50006 5.60633 4.70415 5.16538 4.9384 4.92954C5.17265 4.69371 5.61221 4.48664 6.06071 4.3338C6.27337 4.26134 6.46822 4.20751 6.60986 4.17186C6.68042 4.15411 6.7371 4.14103 6.77538 4.13255C6.79451 4.12831 6.80899 4.12523 6.81826 4.12329L6.82816 4.12124L6.82979 4.12091C6.82974 4.12093 6.82984 4.1209 6.82979 4.12091C7.07278 4.07274 7.24797 3.85908 7.24713 3.61133C7.24629 3.3635 7.06993 3.15104 6.82651 3.1046L6.82473 3.10425L6.81481 3.10227C6.80552 3.1004 6.79102 3.09741 6.77187 3.0933C6.73353 3.08508 6.67676 3.07238 6.60609 3.05511C6.46421 3.02042 6.269 2.96791 6.05586 2.89688C5.60633 2.74708 5.16538 2.54298 4.92954 2.30873C4.69371 2.07449 4.48664 1.63492 4.3338 1.18642C4.26134 0.973762 4.20751 0.778907 4.17186 0.637272C4.15411 0.566714 4.14103 0.51003 4.13255 0.47175C4.12831 0.452627 4.12523 0.438145 4.12329 0.428876L4.12124 0.41897L4.12091 0.417342ZM5.06899 3.61868C4.75551 3.47141 4.44061 3.28231 4.19995 3.04327C3.95929 2.80423 3.76807 2.49062 3.61868 2.17814C3.47141 2.49162 3.28231 2.80652 3.04327 3.04718C2.80423 3.28784 2.49062 3.47906 2.17814 3.62845C2.49162 3.77572 2.80652 3.96482 3.04718 4.20386C3.28784 4.4429 3.47906 4.75651 3.62845 5.069C3.77572 4.75551 3.96482 4.44061 4.20386 4.19995C4.4429 3.95929 4.75651 3.76807 5.06899 3.61868Z" fill="url(#paint0_linear_0_7)"/>
<path fill-rule="evenodd" clip-rule="evenodd" d="M18.1178 1.81178C18.5467 1.81178 18.8943 2.15942 18.8943 2.58826V2.84709H19.1531C19.582 2.84709 19.9296 3.19473 19.9296 3.62357C19.9296 4.0524 19.582 4.40004 19.1531 4.40004H18.8943V4.65887C18.8943 5.08771 18.5467 5.43535 18.1178 5.43535C17.689 5.43535 17.3414 5.08771 17.3414 4.65887V4.40004H17.0825C16.6537 4.40004 16.306 4.0524 16.306 3.62357C16.306 3.19473 16.6537 2.84709 17.0825 2.84709H17.3414V2.58826C17.3414 2.15942 17.689 1.81178 18.1178 1.81178ZM10.8577 4.84551C10.5177 5.28959 10.1313 5.97854 9.56133 7.00104L9.27295 7.51836C9.25435 7.55173 9.23593 7.58492 9.21763 7.61788C8.95758 8.08631 8.72245 8.50985 8.34216 8.79854C7.95729 9.09071 7.48906 9.19572 6.98198 9.30944C6.94632 9.31744 6.91047 9.32548 6.87444 9.33363L6.31444 9.46034C5.20579 9.71118 4.4649 9.88109 3.96049 10.0799C3.47071 10.2729 3.40508 10.4164 3.38025 10.4962C3.35279 10.5845 3.3301 10.7568 3.62397 11.2236C3.92312 11.6988 4.4304 12.2951 5.18489 13.1774L5.56666 13.6238C5.59049 13.6516 5.6142 13.6793 5.63773 13.7067C5.98681 14.1136 6.29822 14.4766 6.44131 14.9367C6.58343 15.3937 6.53628 15.8727 6.48279 16.416C6.47918 16.4527 6.47555 16.4896 6.47194 16.5268L6.41422 17.1225C6.30025 18.2985 6.2249 19.0958 6.25035 19.667C6.27574 20.237 6.39514 20.3524 6.45032 20.3943C6.49283 20.4265 6.6069 20.5102 7.11679 20.3641C7.63666 20.2152 8.33208 19.8974 9.37018 19.4195L9.8945 19.178C9.92893 19.1622 9.96317 19.1463 9.99723 19.1306C10.4686 18.9124 10.9078 18.7091 11.3883 18.7091C11.8689 18.7091 12.3081 18.9124 12.7795 19.1306C12.8135 19.1463 12.8478 19.1622 12.8822 19.178L13.4065 19.4195C14.4446 19.8974 15.14 20.2152 15.6599 20.3641C16.1698 20.5102 16.2839 20.4265 16.3264 20.3943C16.3816 20.3524 16.501 20.237 16.5264 19.667C16.5518 19.0958 16.4764 18.2985 16.3625 17.1225L16.3048 16.5268C16.3012 16.4896 16.2975 16.4527 16.2939 16.416C16.2404 15.8727 16.1933 15.3937 16.3354 14.9367C16.4785 14.4766 16.7899 14.1136 17.139 13.7067C17.1625 13.6793 17.1862 13.6516 17.21 13.6238L17.5918 13.1773C18.3463 12.2951 18.8536 11.6988 19.1527 11.2236C19.4466 10.7568 19.4239 10.5845 19.3965 10.4962C19.3716 10.4164 19.306 10.2729 18.8162 10.0799C18.3118 9.88109 17.5709 9.71118 16.4623 9.46034L15.9023 9.33363C15.8662 9.32548 15.8304 9.31744 15.7947 9.30944C15.2876 9.19572 14.8194 9.09071 14.4345 8.79854C14.0542 8.50985 13.8191 8.08631 13.5591 7.61788C13.5408 7.58492 13.5224 7.55173 13.5037 7.51835L13.2154 7.00103C12.6454 5.97854 12.259 5.28959 11.919 4.84551C11.5793 4.40194 11.4326 4.40004 11.3883 4.40004C11.3441 4.40004 11.1974 4.40194 10.8577 4.84551ZM9.62478 3.90132C10.0507 3.3451 10.5994 2.84709 11.3883 2.84709C12.1773 2.84709 12.726 3.3451 13.1519 3.90132C13.5693 4.44638 14.0099 5.23678 14.5406 6.18886L14.8602 6.76222C15.2107 7.39098 15.2867 7.49571 15.3735 7.56162C15.4555 7.62383 15.5631 7.66469 16.245 7.81896L16.8692 7.9602C17.8967 8.19263 18.7564 8.38712 19.3856 8.63506C20.0425 8.89393 20.6467 9.28689 20.8794 10.0351C21.1094 10.7748 20.8465 11.4479 20.467 12.0509C20.0998 12.6341 19.516 13.3168 18.8131 14.1386L18.3903 14.6331C17.929 15.1725 17.8542 15.2823 17.8183 15.3978C17.7814 15.5166 17.7808 15.6581 17.8505 16.3771L17.9142 17.0346C18.0207 18.133 18.1087 19.0413 18.0778 19.7362C18.0462 20.4453 17.8843 21.1613 17.2654 21.6312C16.6338 22.1107 15.9041 22.0496 15.2322 21.857C14.5837 21.6712 13.7792 21.3008 12.8174 20.8579L12.2327 20.5887C11.5917 20.2935 11.4835 20.2621 11.3883 20.2621C11.2932 20.2621 11.185 20.2935 10.544 20.5887L9.95927 20.8579C8.99748 21.3008 8.19301 21.6712 7.54455 21.857C6.87258 22.0496 6.14294 22.1107 5.51133 21.6312C4.8924 21.1613 4.73052 20.4453 4.69893 19.7362C4.66798 19.0413 4.75603 18.133 4.86249 17.0347L4.92622 16.3771C4.99589 15.6581 4.99534 15.5166 4.9584 15.3978C4.92248 15.2824 4.84767 15.1725 4.38641 14.6331L3.96354 14.1386C3.26072 13.3168 2.6769 12.6341 2.30974 12.0509C1.93016 11.4479 1.66731 10.7748 1.89734 10.0351C2.13 9.28689 2.73424 8.89393 3.39111 8.63506C4.02026 8.38712 4.88002 8.19263 5.90748 7.9602L6.53173 7.81896C7.21357 7.66469 7.32123 7.62383 7.40317 7.56162C7.48999 7.49571 7.56601 7.39098 7.91651 6.76222L8.23613 6.18885C8.76681 5.23678 9.20738 4.44638 9.62478 3.90132Z" fill="url(#paint1_linear_0_7)"/>
<defs>
<linearGradient id="paint0_linear_0_7" x1="0" y1="11" x2="20.9654" y2="11" gradientUnits="userSpaceOnUse">
<stop stop-color="#C4CBF2"/>
<stop offset="0.44" stop-color="#DCC2FF"/>
<stop offset="0.71" stop-color="#E1DAF4"/>
<stop offset="1" stop-color="#D2D3F3"/>
</linearGradient>
<linearGradient id="paint1_linear_0_7" x1="0" y1="11" x2="20.9654" y2="11" gradientUnits="userSpaceOnUse">
<stop stop-color="#C4CBF2"/>
<stop offset="0.44" stop-color="#DCC2FF"/>
<stop offset="0.71" stop-color="#E1DAF4"/>
<stop offset="1" stop-color="#D2D3F3"/>
</linearGradient>
</defs>
</svg>
