<svg width="18" height="14" viewBox="0 0 18 14" fill="none" xmlns="http://www.w3.org/2000/svg">
<path d="M15.6912 6.39869C15.9277 6.18682 16.1482 5.97663 16.3513 5.76928C16.9824 5.12515 17.4755 4.47955 17.7512 3.8704C18.0224 3.27094 18.1351 2.57751 17.7614 1.98035C17.41 1.41857 16.7691 1.17551 16.1242 1.0889C15.462 0.999974 14.6591 1.05482 13.7826 1.2167L13.0389 1.35422C11.9161 0.504231 10.5171 0 9.00025 0C5.30129 0 2.30269 2.9986 2.30269 6.69755C2.30269 6.7701 2.30385 6.84238 2.30614 6.91437L1.86472 7.41102C1.16197 8.09506 0.611252 8.78011 0.297297 9.4227C-0.0091433 10.0499 -0.155118 10.7848 0.239032 11.4147C0.601339 11.9938 1.27069 12.2347 1.94057 12.3143C2.63085 12.3963 3.47027 12.3276 4.38743 12.1459C4.56768 12.1102 4.75221 12.0698 4.94062 12.025C4.53561 11.7159 4.16689 11.3616 3.84197 10.9698C3.12837 11.0918 2.53642 11.1205 2.08872 11.0673C1.55901 11.0044 1.3646 10.8461 1.30363 10.7487C1.25133 10.6651 1.19352 10.449 1.42562 9.97397C1.6274 9.56097 2.00162 9.06009 2.54862 8.50215C2.80457 9.41912 3.25076 10.2567 3.84197 10.9698C3.94015 10.953 4.04063 10.9344 4.14335 10.9141C5.83534 10.5788 8.00553 9.78264 10.2378 8.59334C12.4694 7.40441 14.2969 6.07092 15.4519 4.89292C15.1959 3.97595 14.7497 3.13834 14.1585 2.42531C14.899 2.29867 15.5063 2.27298 15.9571 2.33352C16.4548 2.40036 16.6381 2.55245 16.6968 2.64641C16.7465 2.72579 16.8018 2.92223 16.6071 3.35268C16.4167 3.77345 16.035 4.29781 15.4543 4.89041L15.4519 4.89292C15.5865 5.37509 15.6684 5.87921 15.6912 6.39869Z" fill="white"/>
<path d="M9.00025 13.3951C12.6992 13.3951 15.6978 10.3965 15.6978 6.69755C15.6978 6.5974 15.6956 6.49777 15.6912 6.39869C14.451 7.50993 12.7697 8.66732 10.8283 9.70164C8.74228 10.813 6.67663 11.6115 4.94062 12.025C6.06695 12.8846 7.47398 13.3951 9.00025 13.3951Z" fill="white"/>
</svg>
