<svg width="22" height="19" viewBox="0 0 22 19" fill="none" xmlns="http://www.w3.org/2000/svg">
<path fill-rule="evenodd" clip-rule="evenodd" d="M14.2424 0.51049C15.1862 0.0495565 16.2363 -0.20867 17.1112 0.2144C17.5777 0.439927 17.9003 0.817677 18.0955 1.26734C18.2729 1.67584 18.3452 2.14052 18.3494 2.62113C18.3529 3.02519 18.3084 3.46162 18.2232 3.92073C18.0944 4.61473 17.871 5.36915 17.5707 6.15578C17.5393 6.23812 17.4951 6.31184 17.4412 6.37555C17.629 6.43895 17.8123 6.50415 17.9907 6.57106L17.9924 6.57167C18.0397 6.58944 18.0916 6.60918 18.1381 6.62713C18.2733 6.67932 18.4057 6.7325 18.5349 6.78662C18.8654 6.92495 19.176 7.06945 19.4645 7.21933C19.7611 7.37341 20.038 7.53502 20.2914 7.70385C21.1654 8.28622 21.918 9.06269 21.9941 10.0316C22.0346 10.5481 21.8712 11.0172 21.5814 11.4126C21.3182 11.7718 20.9534 12.0686 20.5405 12.3147C20.1934 12.5215 19.7941 12.7032 19.3547 12.8612C18.6905 13.1001 17.9264 13.2878 17.0957 13.4252C16.6815 13.4938 16.2901 13.2136 16.2215 12.7993C16.153 12.3851 16.4332 11.9937 16.8474 11.9251C17.417 11.8309 17.9277 11.7148 18.3749 11.5823L18.3801 11.5807C18.9538 11.4104 19.4157 11.2149 19.7622 11.0085C20.0605 10.8307 20.248 10.6598 20.355 10.5138C20.4617 10.3682 20.4863 10.2533 20.4782 10.1506C20.4595 9.9113 20.2278 9.48865 19.4482 8.96921C19.2469 8.83504 19.0184 8.70101 18.7636 8.56865L17.4495 7.99194C15.6726 7.3269 13.2926 6.81804 10.6725 6.63524C10.3474 6.61256 10.0268 6.59548 9.71151 6.58376C9.28945 7.11721 8.87264 7.68315 8.46784 8.27691C7.71396 9.38273 7.0806 10.4695 6.57686 11.4894C6.89586 11.6711 7.04462 12.0627 6.91127 12.4173C6.76654 12.8021 6.34322 13.0006 5.95671 12.87C5.72741 13.4405 5.54668 13.9785 5.41652 14.4738C5.40282 14.5259 5.38973 14.5774 5.37724 14.6282L5.37501 14.6376C5.17677 15.4475 5.13318 16.082 5.20276 16.5248C5.22978 16.6967 5.27026 16.8239 5.31694 16.9187C5.38823 17.0631 5.47397 17.1323 5.54752 17.1687L5.55148 17.1707C5.59533 17.1919 5.64941 17.2098 5.71734 17.2209C5.8416 17.2413 6.01199 17.2388 6.23628 17.1905C6.6415 17.1032 7.15542 16.881 7.75775 16.5035C7.89687 16.4164 8.03946 16.3217 8.18517 16.2196C8.42807 16.0495 8.67883 15.8595 8.93571 15.6503L10.1272 14.6822C10.4531 14.4174 10.9319 14.4669 11.1967 14.7928C11.4614 15.1186 11.4119 15.5974 11.0861 15.8622L9.8957 16.8295C9.61318 17.0595 9.33313 17.272 9.05742 17.4651C8.89195 17.581 8.72772 17.6901 8.56512 17.792C7.87832 18.2224 7.19626 18.5391 6.55651 18.6769C6.19527 18.7547 5.82754 18.7798 5.47126 18.7214C5.27155 18.6887 5.07587 18.6297 4.88957 18.5396L4.87301 18.5315C4.13355 18.1655 3.79295 17.4437 3.68964 16.6858C3.58726 15.9348 3.69545 15.0405 3.94594 14.0873C4.08838 13.5454 4.28137 12.9675 4.52169 12.3635L4.008 12.1822C3.66688 12.0543 3.34212 11.9197 3.03632 11.779C2.85278 11.6946 2.67572 11.6078 2.50573 11.5188C1.78769 11.1429 1.17018 10.7137 0.728471 10.2308C0.479054 9.95817 0.27188 9.65332 0.142618 9.31622C0.0701642 9.12726 0.0224024 8.92853 0.00621231 8.72223L0.00485236 8.70385C-0.0521141 7.88073 0.399297 7.22256 1.00158 6.75108C1.59843 6.28384 2.42521 5.92614 3.37456 5.66165C4.88246 5.24155 6.83109 5.02086 9.00222 5.04564C10.0295 3.81421 11.0892 2.75178 12.1038 1.92559L12.1052 1.92447C12.1444 1.89259 12.1877 1.85767 12.2266 1.82659C12.3399 1.73616 12.4525 1.64874 12.5645 1.56441C12.8506 1.34888 13.1321 1.15355 13.407 0.980032C13.6897 0.801652 13.9689 0.644117 14.2424 0.51049ZM10.9456 5.13052C12.7964 5.2695 14.5584 5.56538 16.1055 5.97532C16.0911 5.85667 16.1046 5.73288 16.1502 5.61346C16.3561 5.07416 16.5135 4.57456 16.6246 4.12158L16.6259 4.11635C16.7682 3.53503 16.8324 3.03761 16.8289 2.63432C16.8259 2.28706 16.7729 2.03901 16.7008 1.87288C16.6289 1.7073 16.5421 1.62814 16.4494 1.58329C16.2333 1.47882 15.7515 1.46563 14.9098 1.87676C14.6923 1.98294 14.4613 2.11264 14.2185 2.26589L13.0577 3.10965C12.3789 3.66299 11.6641 4.34408 10.9456 5.13052ZM7.80572 6.57861C6.23622 6.6312 4.86034 6.82614 3.78263 7.12639C3.7307 7.14086 3.67965 7.15551 3.62949 7.17036L3.62026 7.17316C2.82097 7.41051 2.25112 7.69292 1.90388 7.97636C1.76909 8.08639 1.67962 8.18554 1.62132 8.27366C1.53257 8.40807 1.51608 8.517 1.52174 8.59887L1.52207 8.60327C1.52588 8.65183 1.5377 8.70756 1.56234 8.77183C1.60742 8.8894 1.69554 9.03526 1.8504 9.20455C2.13018 9.51041 2.58129 9.84207 3.21101 10.1718C3.35646 10.2479 3.51013 10.3233 3.67173 10.3976C3.94115 10.5216 4.23174 10.6422 4.5419 10.7585L5.13864 10.9691C5.69197 9.82821 6.38908 8.62677 7.2115 7.42042C7.40655 7.13432 7.60483 6.85353 7.80572 6.57861Z" fill="#D52B1E"/>
</svg>
