<svg width="57" height="56" viewBox="0 0 57 56" fill="none" xmlns="http://www.w3.org/2000/svg">
<path d="M24.0204 18.4266C26.5326 13.92 27.7887 11.6667 29.6666 11.6667C31.5446 11.6667 32.8007 13.92 35.3129 18.4266L35.9628 19.5925C36.6767 20.8732 37.0336 21.5135 37.5902 21.936C38.1467 22.3585 38.8399 22.5153 40.2261 22.829L41.4882 23.1145C46.3666 24.2183 48.8058 24.7702 49.3861 26.6364C49.9664 28.5025 48.3035 30.447 44.9778 34.336L44.1174 35.3422C43.1723 36.4473 42.6998 36.9999 42.4872 37.6835C42.2746 38.3671 42.346 39.1043 42.4889 40.5788L42.619 41.9212C43.1218 47.11 43.3732 49.7044 41.8539 50.8578C40.3346 52.0111 38.0508 50.9596 33.4832 48.8565L32.3015 48.3124C31.0036 47.7148 30.3546 47.416 29.6666 47.416C28.9787 47.416 28.3297 47.7148 27.0318 48.3124L25.8501 48.8565C21.2825 50.9596 18.9986 52.0111 17.4794 50.8578C15.9601 49.7044 16.2115 47.11 16.7143 41.9212L16.8444 40.5788C16.9872 39.1043 17.0587 38.3671 16.8461 37.6835C16.6335 36.9999 16.161 36.4473 15.2159 35.3422L14.3555 34.336C11.0298 30.447 9.36688 28.5025 9.9472 26.6364C10.5275 24.7702 12.9667 24.2183 17.8451 23.1145L19.1072 22.829C20.4934 22.5153 21.1866 22.3585 21.7431 21.936C22.2997 21.5135 22.6566 20.8732 23.3705 19.5926L24.0204 18.4266Z" fill="url(#paint0_linear_2609_62409)"/>
<path d="M11.8571 5.83424C11.9271 5.58741 12.3652 5.58593 12.4368 5.83228C12.764 6.95721 13.3706 8.61998 14.2879 9.53109C15.2052 10.4422 16.872 11.0376 17.9991 11.3571C18.2459 11.4271 18.2474 11.8652 18.0011 11.9368C16.8761 12.264 15.2134 12.8706 14.3023 13.7879C13.3911 14.7052 12.7958 16.372 12.4763 17.4991C12.4063 17.7459 11.9682 17.7474 11.8965 17.5011C11.5694 16.3761 10.9628 14.7134 10.0455 13.8023C9.12818 12.8911 7.46135 12.2958 6.33424 11.9762C6.08741 11.9063 6.08593 11.4682 6.33228 11.3965C7.45721 11.0694 9.11998 10.4628 10.0311 9.54547C10.9422 8.62818 11.5376 6.96135 11.8571 5.83424Z" fill="#C4CBF2"/>
<path fill-rule="evenodd" clip-rule="evenodd" d="M44.8333 7.58331C45.7998 7.58331 46.5833 8.36681 46.5833 9.33331V9.91665H47.1667C48.1332 9.91665 48.9167 10.7001 48.9167 11.6666C48.9167 12.6331 48.1332 13.4166 47.1667 13.4166H46.5833V14C46.5833 14.9665 45.7998 15.75 44.8333 15.75C43.8668 15.75 43.0833 14.9665 43.0833 14V13.4166H42.5C41.5335 13.4166 40.75 12.6331 40.75 11.6666C40.75 10.7001 41.5335 9.91665 42.5 9.91665H43.0833V9.33331C43.0833 8.36681 43.8668 7.58331 44.8333 7.58331Z" fill="#C4CBF2"/>
<defs>
<linearGradient id="paint0_linear_2609_62409" x1="9.83331" y1="31.5" x2="49.5" y2="31.5" gradientUnits="userSpaceOnUse">
<stop stop-color="#C4CBF2"/>
<stop offset="0.44" stop-color="#DCC2FF"/>
<stop offset="0.71" stop-color="#E1DAF4"/>
<stop offset="1" stop-color="#D2D3F3"/>
</linearGradient>
</defs>
</svg>
