<svg width="17" height="16" viewBox="0 0 17 16" fill="none" xmlns="http://www.w3.org/2000/svg">
<circle cx="6.91667" cy="4.00001" r="2.66667" stroke="#EF7013"/>
<path d="M12.2785 8.24373L12.5743 7.8406L12.5743 7.8406L12.2785 8.24373ZM12.9166 5.79424L12.5708 6.15539C12.7642 6.34053 13.0691 6.34053 13.2624 6.15539L12.9166 5.79424ZM13.5547 8.24373L13.2589 7.8406L13.2589 7.8406L13.5547 8.24373ZM12.9166 8.55171L12.9166 9.05171H12.9166L12.9166 8.55171ZM12.2785 8.24373L12.5743 7.8406C12.2957 7.63615 11.9887 7.38084 11.7563 7.11209C11.5108 6.82824 11.4166 6.60755 11.4166 6.4645H10.9166H10.4166C10.4166 6.97773 10.7108 7.43191 10.9999 7.76623C11.3021 8.11566 11.6761 8.42182 11.9827 8.64685L12.2785 8.24373ZM10.9166 6.4645H11.4166C11.4166 6.08046 11.5917 5.91336 11.7445 5.85977C11.9114 5.80127 12.2205 5.81992 12.5708 6.15539L12.9166 5.79424L13.2624 5.43309C12.7128 4.90686 12.0219 4.70289 11.4137 4.91607C10.7916 5.13416 10.4166 5.73304 10.4166 6.4645H10.9166ZM13.5547 8.24373L13.8505 8.64686C14.1572 8.42183 14.5312 8.11566 14.8334 7.76624C15.1225 7.43192 15.4166 6.97773 15.4166 6.46449H14.9166H14.4166C14.4166 6.60755 14.3225 6.82824 14.077 7.1121C13.8446 7.38085 13.5376 7.63616 13.2589 7.8406L13.5547 8.24373ZM14.9166 6.46449H15.4166C15.4166 5.73304 15.0417 5.13416 14.4195 4.91607C13.8114 4.70289 13.1204 4.90686 12.5708 5.43309L12.9166 5.79424L13.2624 6.15539C13.6128 5.81992 13.9218 5.80127 14.0887 5.85977C14.2416 5.91336 14.4166 6.08046 14.4166 6.46449H14.9166ZM12.2785 8.24373L11.9827 8.64685C12.2285 8.82717 12.5044 9.05171 12.9166 9.05171L12.9166 8.55171L12.9166 8.05171C12.9003 8.05171 12.8903 8.05167 12.854 8.03253C12.7967 8.0023 12.7251 7.95127 12.5743 7.8406L12.2785 8.24373ZM13.5547 8.24373L13.2589 7.8406C13.1081 7.95127 13.0365 8.0023 12.9792 8.03253C12.943 8.05167 12.9329 8.05171 12.9166 8.05171L12.9166 8.55171L12.9166 9.05171C13.3289 9.05171 13.6048 8.82717 13.8505 8.64686L13.5547 8.24373Z" fill="#EF7013"/>
<path d="M12.2484 12C12.25 11.8905 12.25 11.7793 12.25 11.6667C12.25 10.0098 9.86223 8.66666 6.91671 8.66666C3.97119 8.66666 1.58337 10.0098 1.58337 11.6667C1.58337 13.3235 1.58337 14.6667 6.91671 14.6667C8.40404 14.6667 9.4766 14.5622 10.25 14.3756" stroke="#EF7013" stroke-linecap="round"/>
</svg>
