<svg width="18" height="20" viewBox="0 0 18 20" fill="none" xmlns="http://www.w3.org/2000/svg">
<path d="M8.25 0C7.64373 0.113098 6.93159 0.356864 5.83772 0.731299L5.26491 0.927375C2.25832 1.95654 0.755031 2.47112 0.377516 3.00899C0.00824505 3.53511 0.000180075 5.07632 3.93288e-06 8.13601L8.25 5.38601V0Z" fill="#D99994"/>
<path d="M8.25 6.96715L0 9.71715V9.91794C0 15.556 4.23896 18.2921 6.89856 19.4539C7.40928 19.677 7.73923 19.8211 8.25 19.8862V6.96715Z" fill="#D99994"/>
<path d="M9.75 19.8863V6.96715L18 9.71715V9.91794C18 15.556 13.761 18.2921 11.1014 19.4539C10.5907 19.677 10.2608 19.8211 9.75 19.8863Z" fill="#D99994"/>
<path d="M9.75 5.38601V8.43647e-09C10.3563 0.113098 11.0684 0.356865 12.1623 0.7313L12.7351 0.927376C15.7417 1.95654 17.245 2.47112 17.6225 3.00899C17.9918 3.53511 17.9998 5.07632 18 8.13601L9.75 5.38601Z" fill="#D99994"/>
</svg>
