<svg width="17" height="16" viewBox="0 0 17 16" fill="none" xmlns="http://www.w3.org/2000/svg">
<path d="M14.9136 9.01346L14.4155 9.05697L14.9136 9.01346ZM8.04725 6.07992L8.09298 5.58202V5.58202L8.04725 6.07992ZM1.58652 7.78932L2.08462 7.74581L1.58652 7.78932ZM14.7453 9.58731L14.3396 9.29505L14.7453 9.58731ZM1.64661 8.043L2.11337 7.86374V7.86374L1.64661 8.043ZM1.93549 8.49504L2.30857 8.16216L2.30857 8.16215L1.93549 8.49504ZM2.96386 9.26306L2.72262 9.70101L2.72262 9.70101L2.96386 9.26306ZM3.42422 6.8374C3.68998 6.76238 3.8446 6.48613 3.76959 6.22037C3.69457 5.95461 3.41832 5.79999 3.15256 5.875L3.42422 6.8374ZM5.23017 10.6632C5.49685 10.7349 5.77114 10.5768 5.84282 10.3101C5.9145 10.0435 5.75642 9.76916 5.48974 9.69748L5.23017 10.6632ZM1.75481 7.2155L2.1605 7.50777L2.1605 7.50777L1.75481 7.2155ZM14.8535 8.75982L14.3867 8.93908V8.93908L14.8535 8.75982ZM14.5646 8.30778L14.1915 8.64066V8.64066L14.5646 8.30778ZM13.5362 7.53976L13.7775 7.1018V7.1018L13.5362 7.53976ZM11.2699 6.13961C11.0032 6.06793 10.7289 6.22601 10.6573 6.49269C10.5856 6.75937 10.7437 7.03366 11.0103 7.10533L11.2699 6.13961ZM5.80395 10.8065C6.07298 10.8688 6.34156 10.7012 6.40383 10.4322C6.4661 10.1631 6.29849 9.89457 6.02946 9.8323L5.80395 10.8065ZM12.514 10.0984C12.2431 10.1516 12.0666 10.4145 12.1198 10.6854C12.1731 10.9564 12.4359 11.1329 12.7069 11.0796L12.514 10.0984ZM5.5592 5.51874C5.28338 5.53209 5.07061 5.76651 5.08396 6.04233C5.09731 6.31815 5.33173 6.53092 5.60755 6.51757L5.5592 5.51874ZM14.9136 9.01346L15.4117 8.96994C15.3565 8.33799 14.87 7.81958 14.2978 7.42232L14.0126 7.83303L13.7275 8.24375C14.2386 8.59858 14.4007 8.8876 14.4155 9.05697L14.9136 9.01346ZM14.0126 7.83303L14.2978 7.42232C13.0053 6.52499 10.6636 5.81814 8.09298 5.58202L8.04725 6.07992L8.00151 6.57783C10.4911 6.80651 12.6367 7.48646 13.7275 8.24375L14.0126 7.83303ZM13.2117 10.4466L13.3476 10.9278C14.1159 10.7109 14.7913 10.3788 15.151 9.87958L14.7453 9.58731L14.3396 9.29505C14.1842 9.51068 13.7868 9.76474 13.0759 9.96542L13.2117 10.4466ZM14.7453 9.58731L15.151 9.87958C15.3395 9.6178 15.4412 9.3085 15.4117 8.96995L14.9136 9.01346L14.4155 9.05697C14.4218 9.12911 14.4052 9.20398 14.3396 9.29505L14.7453 9.58731ZM1.58652 7.78932L1.08842 7.83283C1.10022 7.96795 1.13221 8.09821 1.17985 8.22226L1.64661 8.043L2.11337 7.86374C2.09611 7.81878 2.08759 7.77973 2.08462 7.74581L1.58652 7.78932ZM1.64661 8.043L1.17985 8.22226C1.26486 8.44361 1.39974 8.64561 1.56241 8.82792L1.93549 8.49504L2.30857 8.16215C2.20522 8.04632 2.14491 7.94585 2.11337 7.86374L1.64661 8.043ZM1.93549 8.49504L1.56241 8.82792C1.85073 9.15105 2.25334 9.44252 2.72262 9.70101L2.96386 9.26306L3.2051 8.82511C2.7928 8.598 2.49503 8.37113 2.30857 8.16216L1.93549 8.49504ZM2.96386 9.26306L2.72262 9.70101C3.01829 9.86388 3.3475 10.0175 3.70355 10.1603L3.88966 9.69623L4.07578 9.23217C3.75124 9.10201 3.45965 8.96532 3.2051 8.82511L2.96386 9.26306ZM3.28839 6.3562L3.15256 5.875C2.56679 6.04035 2.05425 6.2674 1.68546 6.57033C1.30871 6.8798 1.04252 7.30739 1.08842 7.83283L1.58652 7.78932L2.08462 7.74581C2.07625 7.64991 2.10863 7.51685 2.3202 7.34306C2.53974 7.16272 2.90527 6.98388 3.42422 6.8374L3.28839 6.3562ZM14.0126 7.83303L14.2978 7.42231C13.8861 7.13648 13.3751 6.87454 12.7966 6.64252L12.6105 7.10659L12.4243 7.57066C12.955 7.78347 13.3944 8.01248 13.7275 8.24375L14.0126 7.83303ZM2.96386 9.26306L2.72262 9.70101C3.40074 10.0745 4.26138 10.4028 5.23017 10.6632L5.35996 10.1803L5.48974 9.69748C4.57477 9.45156 3.79405 9.14952 3.2051 8.82511L2.96386 9.26306ZM1.58652 7.78932L1.08842 7.83283C1.14362 8.46478 1.63006 8.98322 2.20228 9.3805L2.48744 8.96978L2.77259 8.55907C2.26153 8.20425 2.09942 7.91519 2.08462 7.74581L1.58652 7.78932ZM3.28839 6.3562L3.15256 5.875C2.38425 6.09188 1.70876 6.42404 1.34913 6.92324L1.75481 7.2155L2.1605 7.50777C2.31584 7.29214 2.71327 7.03808 3.42422 6.8374L3.28839 6.3562ZM1.75481 7.2155L1.34913 6.92324C1.16055 7.185 1.05884 7.49426 1.08842 7.83283L1.58652 7.78932L2.08462 7.74581C2.07832 7.67369 2.09488 7.59885 2.1605 7.50777L1.75481 7.2155ZM14.9136 9.01346L15.4117 8.96994C15.3999 8.8348 15.3679 8.70457 15.3202 8.58056L14.8535 8.75982L14.3867 8.93908C14.404 8.98407 14.4125 9.02308 14.4155 9.05697L14.9136 9.01346ZM14.8535 8.75982L15.3202 8.58056C15.2352 8.35921 15.1003 8.15721 14.9377 7.9749L14.5646 8.30778L14.1915 8.64066C14.2949 8.7565 14.3552 8.85697 14.3867 8.93908L14.8535 8.75982ZM14.5646 8.30778L14.9377 7.9749C14.6494 7.65177 14.2467 7.3603 13.7775 7.1018L13.5362 7.53976L13.295 7.97771C13.7073 8.20482 14.0051 8.43169 14.1915 8.64066L14.5646 8.30778ZM13.5362 7.53976L13.7775 7.1018C13.4818 6.93895 13.1526 6.78532 12.7966 6.64252L12.6105 7.10659L12.4243 7.57066C12.7489 7.70081 13.0404 7.83749 13.295 7.97771L13.5362 7.53976ZM13.2117 10.4466L13.3476 10.9278C13.9333 10.7625 14.4459 10.5354 14.8147 10.2325C15.1914 9.92297 15.4576 9.49538 15.4117 8.96994L14.9136 9.01346L14.4155 9.05697C14.4238 9.15289 14.3914 9.28596 14.1799 9.45975C13.9604 9.64009 13.5948 9.81894 13.0759 9.96542L13.2117 10.4466ZM2.48744 8.96978L2.20229 9.3805C2.61401 9.66635 3.12504 9.92829 3.70355 10.1603L3.88966 9.69623L4.07578 9.23217C3.54513 9.01934 3.1057 8.79033 2.77258 8.55906L2.48744 8.96978ZM13.5362 7.53976L13.7775 7.1018C13.0993 6.72827 12.2387 6.4 11.2699 6.13961L11.1401 6.62247L11.0103 7.10533C11.9253 7.35126 12.706 7.6533 13.295 7.97771L13.5362 7.53976ZM2.48744 8.96978L2.20228 9.3805C3.04656 9.96666 4.32728 10.4647 5.80395 10.8065L5.91671 10.3194L6.02946 9.8323C4.61509 9.50491 3.47115 9.04406 2.77259 8.55907L2.48744 8.96978ZM12.6105 10.589L12.7069 11.0796C13.4703 10.9296 14.1342 10.7005 14.6122 10.382C15.0905 10.0632 15.4658 9.58989 15.4117 8.96994L14.9136 9.01346L14.4155 9.05697C14.4248 9.16397 14.3807 9.33455 14.0576 9.54985C13.7342 9.76537 13.2148 9.96065 12.514 10.0984L12.6105 10.589ZM8.04725 6.07992L8.09298 5.58202C7.19562 5.49959 6.34095 5.48089 5.5592 5.51874L5.58337 6.01815L5.60755 6.51757C6.33931 6.48214 7.14714 6.49935 8.00151 6.57783L8.04725 6.07992Z" fill="#EF7013"/>
<path d="M10.4329 3.23373C10.6057 3.12468 10.7735 3.03023 10.935 2.95137C11.5221 2.6646 12.0258 2.58403 12.3846 2.7575C12.5685 2.84641 12.7031 2.99666 12.7909 3.19897C12.873 3.38793 12.9142 3.6223 12.9166 3.89453M10.4329 3.23373C9.22337 3.99708 7.76751 5.47571 6.50461 7.32819M10.4329 3.23373C10.1737 3.39734 9.90315 3.59381 9.62561 3.81977M4.77532 13.9058C4.77757 13.907 4.77981 13.9081 4.78207 13.9091C4.85775 13.9457 4.93989 13.971 5.02789 13.9855C5.18591 14.0114 5.36286 14.0023 5.5554 13.9608C5.89903 13.8868 6.29231 13.7096 6.71622 13.4439C6.81544 13.3818 6.91633 13.3148 7.01866 13.2431C7.1892 13.1236 7.36373 12.9913 7.54112 12.8469L8.32436 12.2104M4.77532 13.9058C4.22484 13.6334 4.12126 12.8048 4.39801 11.6742M4.77532 13.9058C3.89007 13.4677 4.16042 11.5915 5.30997 9.33332M12.7687 4.99243C12.869 4.58278 12.9193 4.21278 12.9166 3.89453M12.9166 3.89453C12.9215 4.46532 12.7557 5.20253 12.4373 6.0365" stroke="#EF7013" stroke-linecap="round"/>
<path d="M8.0931 9.52086C8.08396 8.91392 8.07939 8.61046 8.27073 8.49999C8.46206 8.38952 8.72259 8.54521 9.24364 8.8566L9.37844 8.93716C9.52651 9.02564 9.60054 9.06989 9.68209 9.08019C9.76365 9.0905 9.8435 9.06571 10.0032 9.01612L10.1486 8.97097C10.7105 8.79647 10.9915 8.70922 11.1604 8.86521C11.3293 9.02121 11.2743 9.31714 11.1642 9.90901L11.1357 10.0621C11.1044 10.2303 11.0888 10.3144 11.1074 10.3966C11.1259 10.4787 11.1766 10.5496 11.2778 10.6915L11.3701 10.8206C11.7265 11.3197 11.9047 11.5692 11.8178 11.7761C11.7308 11.983 11.4363 12.0102 10.8472 12.0646L10.6948 12.0787C10.5274 12.0941 10.4437 12.1019 10.3736 12.1423C10.3035 12.1828 10.255 12.2514 10.1579 12.3886L10.0695 12.5136C9.72785 12.9965 9.55702 13.238 9.33438 13.2099C9.11174 13.1817 8.98474 12.9026 8.73075 12.3444L8.66504 12.2C8.59286 12.0413 8.55677 11.962 8.4949 11.9049C8.43303 11.8477 8.35238 11.8192 8.19108 11.7622L8.04424 11.7103C7.47663 11.5097 7.19282 11.4094 7.14217 11.1851C7.09152 10.9609 7.30758 10.7612 7.73968 10.3617L7.85147 10.2584C7.97427 10.1449 8.03566 10.0882 8.06751 10.0124C8.09936 9.93659 8.09806 9.85035 8.09547 9.67788L8.0931 9.52086Z" stroke="#EF7013"/>
</svg>
