<svg width="17" height="16" viewBox="0 0 17 16" fill="none" xmlns="http://www.w3.org/2000/svg">
<path d="M8.75 8.12757L8.40421 8.48872C8.59757 8.67385 8.90243 8.67385 9.09579 8.48872L8.75 8.12757ZM8.75 10.8204L8.75 11.3204L8.75 10.8204ZM7.80914 10.3428L8.12567 9.95577C7.88199 9.75648 7.65053 9.53571 7.48401 9.31516C7.31126 9.08637 7.25 8.91284 7.25 8.79782H6.75H6.25C6.25 9.23018 6.45885 9.61697 6.68594 9.91773C6.91926 10.2267 7.21737 10.5048 7.49261 10.7299L7.80914 10.3428ZM6.75 8.79782H7.25C7.25 8.41379 7.42505 8.24669 7.57792 8.1931C7.74479 8.1346 8.05384 8.15324 8.40421 8.48872L8.75 8.12757L9.09579 7.76642C8.5462 7.24019 7.85524 7.03622 7.2471 7.2494C6.62497 7.46749 6.25 8.06637 6.25 8.79782H6.75ZM9.69086 10.3428L10.0074 10.7299C10.2826 10.5048 10.5807 10.2267 10.8141 9.91774C11.0411 9.61697 11.25 9.23018 11.25 8.79782H10.75H10.25C10.25 8.91284 10.1887 9.08637 10.016 9.31517C9.84947 9.53572 9.61801 9.75649 9.37433 9.95577L9.69086 10.3428ZM10.75 8.79782H11.25C11.25 8.06636 10.875 7.46749 10.2529 7.2494C9.64476 7.03622 8.95381 7.24019 8.40421 7.76642L8.75 8.12757L9.09579 8.48872C9.44616 8.15324 9.75521 8.1346 9.92208 8.1931C10.075 8.24669 10.25 8.41379 10.25 8.79782H10.75ZM7.80914 10.3428L7.49261 10.7299C7.85775 11.0285 8.18722 11.3204 8.75 11.3204L8.75 10.8204L8.75 10.3204C8.66094 10.3204 8.60687 10.3045 8.53634 10.2649C8.44094 10.2114 8.33229 10.1247 8.12567 9.95577L7.80914 10.3428ZM9.69086 10.3428L9.37433 9.95577C9.16771 10.1247 9.05907 10.2114 8.96367 10.2649C8.89314 10.3045 8.83907 10.3204 8.75 10.3204L8.75 10.8204L8.75 11.3204C9.31278 11.3204 9.64225 11.0285 10.0074 10.7299L9.69086 10.3428Z" fill="#EF7013"/>
<path d="M6.75 3.99999V3.33333C6.75 2.22876 7.64543 1.33333 8.75 1.33333C9.85457 1.33333 10.75 2.22876 10.75 3.33333V3.99999" stroke="#EF7013" stroke-linecap="round"/>
<path d="M14.2321 8.35046C13.842 6.26968 13.6469 5.22928 12.9063 4.61464C12.1657 4 11.1072 4 8.99016 4H8.50937C6.39233 4 5.33381 4 4.59321 4.61464C3.85261 5.22928 3.65754 6.26968 3.26739 8.35046C2.71877 11.2764 2.44447 12.7394 3.24421 13.703C4.04396 14.6667 5.53243 14.6667 8.50937 14.6667H8.99016C11.9671 14.6667 13.4556 14.6667 14.2553 13.703C14.7193 13.1439 14.8218 12.4168 14.7189 11.3333" stroke="#EF7013" stroke-linecap="round"/>
</svg>
