<svg width="12" height="11" viewBox="0 0 12 11" fill="none" xmlns="http://www.w3.org/2000/svg">
<path d="M5.75884 2.38793V7.63464L7.8777 8.9295L7.32276 6.50794L9.18938 4.89357L6.73419 4.67495L5.75884 2.38793ZM5.75884 9.21538L2.96732 10.897C2.844 10.9755 2.71507 11.0091 2.58054 10.9979C2.44601 10.9867 2.32829 10.9419 2.2274 10.8634C2.1265 10.7849 2.04802 10.6869 1.99197 10.5694C1.93591 10.4515 1.9247 10.3197 1.95833 10.1739L2.69826 6.99561L0.226247 4.85993C0.114138 4.75904 0.044182 4.64401 0.016379 4.51486C-0.0118726 4.38616 -0.00357652 4.26015 0.0412672 4.13683C0.0861108 4.01351 0.153376 3.91261 0.243064 3.83413C0.332751 3.75566 0.456071 3.70521 0.613024 3.68279L3.8754 3.39691L5.13663 0.403593C5.19268 0.269062 5.27968 0.168164 5.39762 0.100898C5.51511 0.0336328 5.63552 0 5.75884 0C5.88216 0 6.00279 0.0336328 6.12073 0.100898C6.23822 0.168164 6.32499 0.269062 6.38104 0.403593L7.64227 3.39691L10.9046 3.68279C11.0616 3.70521 11.1849 3.75566 11.2746 3.83413C11.3643 3.91261 11.4316 4.01351 11.4764 4.13683C11.5212 4.26015 11.5298 4.38616 11.502 4.51486C11.4737 4.64401 11.4035 4.75904 11.2914 4.85993L8.81942 6.99561L9.55934 10.1739C9.59297 10.3197 9.58176 10.4515 9.52571 10.5694C9.46965 10.6869 9.39117 10.7849 9.29028 10.8634C9.18938 10.9419 9.07166 10.9867 8.93713 10.9979C8.8026 11.0091 8.67368 10.9755 8.55036 10.897L5.75884 9.21538Z" fill="#EF7013"/>
</svg>
