<svg width="57" height="56" viewBox="0 0 57 56" fill="none" xmlns="http://www.w3.org/2000/svg">
<path fill-rule="evenodd" clip-rule="evenodd" d="M37.1296 8.75838C39.302 7.69738 41.7191 7.10299 43.7332 8.07683C44.8068 8.59596 45.5495 9.46548 45.9988 10.5005C46.4071 11.4408 46.5736 12.5105 46.5832 13.6168C46.5913 14.5468 46.4888 15.5514 46.2926 16.6082C45.9962 18.2057 45.482 19.9423 44.7908 21.753C44.7184 21.9425 44.6166 22.1122 44.4927 22.2589C44.9249 22.4048 45.3468 22.5549 45.7576 22.7089L45.7614 22.7103C45.8703 22.7512 45.9898 22.7966 46.0969 22.838C46.4081 22.9581 46.7127 23.0805 47.0103 23.2051C47.7709 23.5235 48.4859 23.8561 49.15 24.2011C49.8327 24.5558 50.47 24.9278 51.0533 25.3164C53.0652 26.6569 54.7977 28.4442 54.9727 30.6745C55.066 31.8634 54.6899 32.9433 54.0228 33.8534C53.4168 34.6802 52.5772 35.3635 51.6268 35.9298C50.8278 36.4059 49.9087 36.8242 48.8972 37.1879C47.3684 37.7377 45.6096 38.1697 43.6974 38.4862C42.7439 38.644 41.843 37.9989 41.6852 37.0454C41.5274 36.0919 42.1724 35.191 43.1259 35.0331C44.4369 34.8162 45.6126 34.549 46.642 34.2439L46.6539 34.2404C47.9745 33.8482 49.0377 33.3983 49.8352 32.9231C50.5219 32.5139 50.9534 32.1206 51.1998 31.7844C51.4455 31.4492 51.502 31.1848 51.4835 30.9484C51.4402 30.3976 50.9071 29.4247 49.1126 28.2291C48.6491 27.9202 48.1231 27.6117 47.5366 27.307L44.5117 25.9795C40.4217 24.4487 34.9432 23.2774 28.9123 22.8566C28.1638 22.8044 27.4259 22.7651 26.7001 22.7381C25.7286 23.966 24.7691 25.2687 23.8374 26.6355C22.1021 29.1809 20.6442 31.6825 19.4846 34.0302C20.2189 34.4485 20.5613 35.3497 20.2544 36.1659C19.9212 37.0517 18.9468 37.5088 18.0571 37.2081C17.5293 38.5212 17.1133 39.7598 16.8137 40.8998C16.7822 41.0198 16.752 41.1383 16.7233 41.2552L16.7181 41.2768C16.2618 43.1411 16.1615 44.6016 16.3217 45.6208C16.3838 46.0165 16.477 46.3094 16.5845 46.5276C16.7486 46.8601 16.9459 47.0193 17.1152 47.1031L17.1243 47.1076C17.2253 47.1564 17.3498 47.1976 17.5061 47.2233C17.7922 47.2702 18.1844 47.2644 18.7007 47.1532C19.6334 46.9522 20.8164 46.4407 22.2029 45.5719C22.5231 45.3713 22.8513 45.1533 23.1867 44.9185C23.7458 44.5269 24.323 44.0894 24.9143 43.608L27.657 41.3794C28.407 40.7699 29.5092 40.8839 30.1187 41.634C30.7282 42.3841 30.6142 43.4862 29.8641 44.0957L27.1241 46.3222C26.4738 46.8516 25.8291 47.3408 25.1945 47.7853C24.8136 48.0521 24.4356 48.3032 24.0613 48.5378C22.4804 49.5284 20.9104 50.2574 19.4378 50.5747C18.6063 50.7538 17.7598 50.8116 16.9397 50.6771C16.48 50.6017 16.0296 50.4659 15.6008 50.2586L15.5626 50.2399C13.8605 49.3974 13.0765 47.736 12.8387 45.9915C12.603 44.2627 12.8521 42.2041 13.4287 40.0102C13.7565 38.7627 14.2008 37.4325 14.7539 36.0422L13.5715 35.6249C12.7863 35.3304 12.0387 35.0206 11.3348 34.6968C10.9124 34.5025 10.5048 34.3028 10.1135 34.0979C8.4607 33.2325 7.03929 32.2446 6.02253 31.1331C5.44841 30.5055 4.97153 29.8038 4.67399 29.0278C4.50721 28.5929 4.39727 28.1354 4.36 27.6606L4.35687 27.6182C4.22574 25.7236 5.26482 24.2085 6.65118 23.1233C8.02505 22.0477 9.92817 21.2244 12.1134 20.6156C15.5844 19.6486 20.0698 19.1406 25.0674 19.1976C27.4321 16.363 29.8714 13.9175 32.2069 12.0157L32.21 12.0132C32.3002 11.9398 32.3999 11.8594 32.4895 11.7878C32.7502 11.5797 33.0096 11.3785 33.2672 11.1843C33.9258 10.6882 34.5737 10.2386 35.2066 9.8392C35.8572 9.42859 36.4999 9.06597 37.1296 8.75838ZM29.5407 19.393C33.8011 19.7129 37.8569 20.394 41.418 21.3376C41.3849 21.0645 41.416 20.7795 41.521 20.5046C41.9949 19.2633 42.3572 18.1133 42.6131 17.0706L42.616 17.0585C42.9435 15.7204 43.0914 14.5754 43.0833 13.6471C43.0764 12.8478 42.9544 12.2768 42.7884 11.8944C42.6229 11.5133 42.4231 11.331 42.2096 11.2278C41.7122 10.9873 40.6033 10.957 38.6657 11.9033C38.1652 12.1477 37.6335 12.4463 37.0746 12.799L34.4025 14.7412C32.8401 16.0149 31.1946 17.5827 29.5407 19.393ZM22.3133 22.7263C18.7005 22.8473 15.5335 23.296 13.0527 23.9872C12.9332 24.0205 12.8157 24.0542 12.7002 24.0884L12.679 24.0948C10.8391 24.6412 9.52745 25.2912 8.72814 25.9437C8.41787 26.1969 8.21193 26.4252 8.07772 26.628C7.87345 26.9374 7.83548 27.1881 7.84852 27.3766L7.84927 27.3867C7.85805 27.4985 7.88525 27.6268 7.94198 27.7747C8.04575 28.0454 8.24858 28.3811 8.60503 28.7708C9.24906 29.4748 10.2874 30.2382 11.737 30.9972C12.0717 31.1725 12.4255 31.346 12.7975 31.5171C13.4176 31.8023 14.0865 32.08 14.8005 32.3478L16.1741 32.8325C17.4478 30.2063 19.0524 27.4408 20.9455 24.664C21.3944 24.0054 21.8509 23.3591 22.3133 22.7263Z" fill="url(#paint0_linear_2207_59395)"/>
<path d="M27.9509 33.323C27.9189 31.1988 27.9029 30.1366 28.5725 29.75C29.2422 29.3633 30.1541 29.9083 31.9777 30.9981L32.4495 31.2801C32.9678 31.5898 33.2269 31.7446 33.5123 31.7807C33.7978 31.8168 34.0772 31.73 34.6362 31.5564L35.145 31.3984C37.1119 30.7877 38.0953 30.4823 38.6865 31.0283C39.2776 31.5742 39.085 32.61 38.6997 34.6815L38.6 35.2175C38.4905 35.8061 38.4358 36.1005 38.5007 36.388C38.5657 36.6756 38.7429 36.9237 39.0975 37.4201L39.4202 37.872C40.6678 39.6189 41.2916 40.4923 40.9873 41.2163C40.6829 41.9404 39.652 42.0356 37.5903 42.2261L37.0568 42.2753C36.471 42.3294 36.178 42.3565 35.9327 42.4981C35.6874 42.6398 35.5175 42.8799 35.1777 43.3603L34.8683 43.7976C33.6725 45.4879 33.0746 46.3331 32.2953 46.2346C31.5161 46.1361 31.0716 45.1592 30.1826 43.2054L29.9526 42.6999C29.7 42.1447 29.5737 41.8671 29.3572 41.6671C29.1406 41.4671 28.8583 41.3673 28.2938 41.1678L27.7798 40.9861C25.7932 40.284 24.7999 39.933 24.6226 39.148C24.4453 38.3631 25.2015 37.6641 26.7139 36.2661L27.1052 35.9045C27.5349 35.5072 27.7498 35.3086 27.8613 35.0433C27.9728 34.7781 27.9682 34.4763 27.9591 33.8726L27.9509 33.323Z" fill="url(#paint1_linear_2207_59395)"/>
<defs>
<linearGradient id="paint0_linear_2207_59395" x1="4.3457" y1="29.1672" x2="54.9868" y2="29.1672" gradientUnits="userSpaceOnUse">
<stop stop-color="#C4CBF2"/>
<stop offset="0.44" stop-color="#DCC2FF"/>
<stop offset="0.71" stop-color="#E1DAF4"/>
<stop offset="1" stop-color="#D2D3F3"/>
</linearGradient>
<linearGradient id="paint1_linear_2207_59395" x1="25.5833" y1="40.9059" x2="39.7284" y2="32.7392" gradientUnits="userSpaceOnUse">
<stop stop-color="#C4CBF2"/>
<stop offset="0.44" stop-color="#DCC2FF"/>
<stop offset="0.71" stop-color="#E1DAF4"/>
<stop offset="1" stop-color="#D2D3F3"/>
</linearGradient>
</defs>
</svg>
