<svg width="19" height="19" viewBox="0 0 19 19" fill="none" xmlns="http://www.w3.org/2000/svg">
<path d="M4.29695 5.80879C2.14983 6.2946 1.07627 6.5375 0.820855 7.35885C0.56544 8.1802 1.29732 9.03604 2.76109 10.7477L3.13978 11.1906C3.55574 11.677 3.76372 11.9202 3.85728 12.221C3.95084 12.5219 3.9194 12.8464 3.85651 13.4954L3.79926 14.0862C3.57796 16.37 3.46731 17.5118 4.13599 18.0195C4.80468 18.5271 5.80985 18.0643 7.8202 17.1386L8.34031 16.8992C8.91158 16.6361 9.19722 16.5046 9.5 16.5046C9.80278 16.5046 10.0884 16.6361 10.6597 16.8992L11.1798 17.1386C13.1901 18.0643 14.1953 18.5271 14.864 18.0195C15.5327 17.5118 15.422 16.37 15.2007 14.0862M16.2389 10.7477C17.7027 9.03604 18.4346 8.1802 18.1791 7.35885C17.9237 6.5375 16.8502 6.2946 14.703 5.80879L14.1476 5.6831C13.5374 5.54505 13.2323 5.47603 12.9874 5.29008C12.7424 5.10413 12.5853 4.8223 12.2711 4.25865L11.9851 3.74549C10.8794 1.76198 10.3265 0.77023 9.5 0.77023C8.67346 0.77023 8.12061 1.76198 7.01492 3.74549" stroke="#C4CBF2" stroke-width="1.5" stroke-linecap="round"/>
</svg>
