<svg width="18" height="14" viewBox="0 0 18 14" fill="none" xmlns="http://www.w3.org/2000/svg">
<path d="M15.691 6.3986C15.9275 6.18673 16.1479 5.97655 16.3511 5.76921C16.9822 5.12508 17.4753 4.47949 17.7509 3.87035C18.0222 3.27089 18.1348 2.57747 17.7612 1.98032C17.4097 1.41855 16.7689 1.1755 16.124 1.08889C15.4618 0.999961 14.6589 1.0548 13.7824 1.21668L13.0388 1.3542C11.916 0.504224 10.5169 0 9.00012 0C5.30122 0 2.30266 2.99856 2.30266 6.69746C2.30266 6.77001 2.30381 6.84229 2.3061 6.91428L1.8647 7.41091C1.16195 8.09495 0.611243 8.77999 0.297293 9.42257C-0.00914317 10.0498 -0.155116 10.7846 0.239029 11.4146C0.601331 11.9937 1.27068 12.2346 1.94054 12.3141C2.63081 12.3961 3.47022 12.3275 4.38737 12.1457C4.56762 12.11 4.75214 12.0697 4.94055 12.0248C4.53554 11.7157 4.16683 11.3615 3.84192 10.9696C3.12833 11.0916 2.53639 11.1203 2.08869 11.0671C1.55899 11.0042 1.36458 10.846 1.30361 10.7485C1.25131 10.6649 1.19351 10.4489 1.4256 9.97384C1.62738 9.56084 2.00159 9.05996 2.54858 8.50203C2.80453 9.41899 3.25072 10.2566 3.84192 10.9696C3.94009 10.9528 4.04057 10.9343 4.14329 10.9139C5.83526 10.5787 8.00542 9.78251 10.2377 8.59322C12.4692 7.40431 14.2967 6.07084 15.4517 4.89286C15.1957 3.9759 14.7495 3.1383 14.1583 2.42528C14.8988 2.29863 15.5061 2.27295 15.9569 2.33349C16.4546 2.40033 16.6378 2.55242 16.6966 2.64638C16.7463 2.72575 16.8016 2.92219 16.6068 3.35264C16.4164 3.7734 16.0347 4.29775 15.4541 4.89034L15.4517 4.89286C15.5862 5.37502 15.6682 5.87913 15.691 6.3986Z" fill="white"/>
<path d="M9.00012 13.3949C12.699 13.3949 15.6976 10.3964 15.6976 6.69746C15.6976 6.59731 15.6954 6.49768 15.691 6.3986C14.4508 7.50983 12.7695 8.6672 10.8281 9.70151C8.74216 10.8129 6.67654 11.6113 4.94055 12.0248C6.06687 12.8844 7.47388 13.3949 9.00012 13.3949Z" fill="white"/>
</svg>
