<svg width="22" height="9" viewBox="0 0 22 9" fill="none" xmlns="http://www.w3.org/2000/svg">
<path d="M21.2275 5.39266L20.463 5.45944L21.2275 5.39266ZM10.6887 0.890098L10.7589 0.125886L10.6887 0.890098ZM0.772382 3.51378L1.5369 3.447L0.772382 3.51378ZM20.9692 6.27345L20.3465 5.82486L20.9692 6.27345ZM0.864616 3.90314L1.58103 3.628H1.58103L0.864616 3.90314ZM1.30801 4.59696L1.88063 4.08603L1.30801 4.59696ZM2.88641 5.77576L2.51614 6.44796H2.51614L2.88641 5.77576ZM3.59299 2.05271C4.00089 1.93758 4.23822 1.51357 4.12308 1.10567C4.00794 0.697767 3.58393 0.460438 3.17603 0.575578L3.59299 2.05271ZM6.36487 7.92479C6.77419 8.0348 7.19518 7.79217 7.3052 7.38286C7.41521 6.97355 7.17258 6.55255 6.76327 6.44254L6.36487 7.92479ZM1.03069 2.63305L1.65336 3.08164L1.65336 3.08164L1.03069 2.63305ZM21.1353 5.00336L20.4188 5.2785L21.1353 5.00336ZM20.6919 4.30954L20.1192 4.82047L20.6919 4.30954ZM19.1135 3.13074L19.4837 2.45854V2.45854L19.1135 3.13074ZM15.635 0.98171C15.2257 0.871695 14.8047 1.11432 14.6947 1.52364C14.5847 1.93295 14.8273 2.35395 15.2366 2.46396L15.635 0.98171ZM7.24554 8.14478C7.65846 8.24036 8.07068 7.9831 8.16626 7.57018C8.26184 7.15726 8.00459 6.74504 7.59166 6.64946L7.24554 8.14478ZM17.5446 7.05785C17.1287 7.13959 16.8578 7.54299 16.9395 7.95887C17.0213 8.37475 17.4247 8.64564 17.8406 8.5639L17.5446 7.05785ZM6.86988 0.0287562C6.44653 0.0492502 6.11996 0.409052 6.14045 0.832395C6.16095 1.25574 6.52075 1.58231 6.94409 1.56182L6.86988 0.0287562ZM21.2275 5.39266L21.992 5.32587C21.9073 4.35591 21.1606 3.56023 20.2824 2.95048L19.8447 3.58087L19.407 4.21127C20.1915 4.75588 20.4403 5.19949 20.463 5.45944L21.2275 5.39266ZM19.8447 3.58087L20.2824 2.95048C18.2986 1.57322 14.7044 0.488294 10.7589 0.125886L10.6887 0.890098L10.6185 1.65431C14.4397 2.0053 17.7329 3.04893 19.407 4.21127L19.8447 3.58087ZM18.6154 7.59235L18.8239 8.33092C20.0032 7.99805 21.0399 7.48821 21.5919 6.72203L20.9692 6.27345L20.3465 5.82486C20.1081 6.15583 19.4981 6.54577 18.4069 6.85378L18.6154 7.59235ZM20.9692 6.27345L21.5919 6.72203C21.8813 6.32024 22.0374 5.8455 21.992 5.32587L21.2275 5.39266L20.463 5.45944C20.4726 5.57017 20.4472 5.68508 20.3465 5.82486L20.9692 6.27345ZM0.772382 3.51378L0.00786487 3.58057C0.0259807 3.78795 0.0750823 3.98788 0.148205 4.17828L0.864616 3.90314L1.58103 3.628C1.55453 3.559 1.54145 3.49907 1.5369 3.447L0.772382 3.51378ZM0.864616 3.90314L0.148205 4.17828C0.278681 4.51802 0.485705 4.82806 0.735379 5.10788L1.30801 4.59696L1.88063 4.08603C1.72199 3.90823 1.62943 3.75402 1.58103 3.628L0.864616 3.90314ZM1.30801 4.59696L0.735379 5.10788C1.1779 5.60384 1.79586 6.05121 2.51614 6.44796L2.88641 5.77576L3.25667 5.10356C2.62385 4.75499 2.16682 4.40678 1.88063 4.08603L1.30801 4.59696ZM2.88641 5.77576L2.51614 6.44796C2.96995 6.69793 3.47524 6.93373 4.02171 7.1529L4.30738 6.44062L4.59304 5.72834C4.09492 5.52857 3.64737 5.31877 3.25667 5.10356L2.88641 5.77576ZM3.38451 1.31415L3.17603 0.575577C2.27695 0.829364 1.49028 1.17785 0.924242 1.6428C0.345982 2.1178 -0.0625874 2.77408 0.00786487 3.58057L0.772382 3.51378L1.5369 3.447C1.52404 3.2998 1.57374 3.09557 1.89847 2.82883C2.23543 2.55204 2.79648 2.27755 3.59299 2.05271L3.38451 1.31415ZM19.8447 3.58087L20.2824 2.95048C19.6505 2.51176 18.8662 2.10972 17.9782 1.7536L17.6926 2.46588L17.4069 3.17816C18.2214 3.50481 18.8958 3.8563 19.4071 4.21127L19.8447 3.58087ZM2.88641 5.77576L2.51614 6.44796C3.55695 7.02127 4.87791 7.52512 6.36487 7.92479L6.56407 7.18366L6.76327 6.44254C5.35892 6.06508 4.16063 5.60149 3.25667 5.10356L2.88641 5.77576ZM0.772382 3.51378L0.00786487 3.58057C0.0925961 4.55051 0.839209 5.34625 1.71749 5.95602L2.15516 5.32562L2.59283 4.69523C1.80842 4.15064 1.55961 3.70697 1.5369 3.447L0.772382 3.51378ZM3.38451 1.31415L3.17603 0.575578C1.99679 0.908446 0.959998 1.41828 0.408019 2.18447L1.03069 2.63305L1.65336 3.08164C1.89179 2.75068 2.50178 2.36074 3.59299 2.05271L3.38451 1.31415ZM1.03069 2.63305L0.408019 2.18447C0.118582 2.58623 -0.0375303 3.06091 0.00786481 3.58057L0.772382 3.51378L1.5369 3.447C1.52723 3.3363 1.55264 3.22144 1.65336 3.08164L1.03069 2.63305ZM21.2275 5.39266L21.992 5.32587C21.9739 5.11844 21.9248 4.91856 21.8517 4.72822L21.1353 5.00336L20.4188 5.2785C20.4454 5.34755 20.4584 5.40742 20.463 5.45944L21.2275 5.39266ZM21.1353 5.00336L21.8517 4.72822C21.7212 4.38848 21.5142 4.07844 21.2645 3.79862L20.6919 4.30954L20.1192 4.82047C20.2779 4.99826 20.3704 5.15247 20.4188 5.2785L21.1353 5.00336ZM20.6919 4.30954L21.2645 3.79862C20.822 3.30266 20.204 2.85529 19.4837 2.45854L19.1135 3.13074L18.7432 3.80294C19.376 4.15151 19.8331 4.49972 20.1192 4.82047L20.6919 4.30954ZM19.1135 3.13074L19.4837 2.45854C19.0299 2.20858 18.5247 1.97278 17.9782 1.7536L17.6926 2.46588L17.4069 3.17816C17.905 3.37793 18.3525 3.58772 18.7432 3.80294L19.1135 3.13074ZM18.6154 7.59235L18.8239 8.33092C19.723 8.07713 20.5097 7.72863 21.0757 7.26365C21.6539 6.78863 22.0625 6.13233 21.992 5.32587L21.2275 5.39266L20.463 5.45944C20.4758 5.60666 20.4261 5.81091 20.1014 6.07766C19.7645 6.35445 19.2034 6.62895 18.4069 6.85378L18.6154 7.59235ZM2.15516 5.32562L1.7175 5.95602C2.34943 6.39475 3.13379 6.79679 4.02171 7.1529L4.30738 6.44062L4.59304 5.72834C3.77857 5.40169 3.1041 5.05019 2.59282 4.69523L2.15516 5.32562ZM19.1135 3.13074L19.4837 2.45854C18.4429 1.88523 17.122 1.38138 15.635 0.98171L15.4358 1.72284L15.2366 2.46396C16.641 2.84142 17.8392 3.30501 18.7432 3.80293L19.1135 3.13074ZM2.15516 5.32562L1.71749 5.95602C3.01334 6.85569 4.97905 7.62015 7.24554 8.14478L7.4186 7.39712L7.59166 6.64946C5.42081 6.14697 3.66501 5.43963 2.59283 4.69523L2.15516 5.32562ZM17.6926 7.81088L17.8406 8.5639C19.0123 8.33361 20.0313 7.9821 20.7649 7.49314C21.4991 7.00386 22.0751 6.27739 21.992 5.32587L21.2275 5.39266L20.463 5.45944C20.4773 5.62368 20.4096 5.88549 19.9137 6.21595C19.4174 6.54674 18.6202 6.84646 17.5446 7.05785L17.6926 7.81088ZM10.6887 0.890098L10.7589 0.125886C9.38156 -0.000625267 8.06976 -0.0293301 6.86988 0.0287562L6.90698 0.795287L6.94409 1.56182C8.06723 1.50745 9.30714 1.53386 10.6185 1.65431L10.6887 0.890098Z" fill="#D52B1E"/>
</svg>
