<svg width="12" height="14" viewBox="0 0 12 14" fill="none" xmlns="http://www.w3.org/2000/svg">
<path fill-rule="evenodd" clip-rule="evenodd" d="M3.22872 1.20141C4.5812 0.40047 5.25744 1.81595e-08 6 0C6.74256 -1.81595e-08 7.4188 0.40047 8.77128 1.20141L9.22872 1.4723C10.5812 2.27324 11.2574 2.67371 11.6287 3.33333C12 3.99295 12 4.79389 12 6.39577V6.93756C12 8.53944 12 9.34038 11.6287 10C11.2574 10.6596 10.5812 11.0601 9.22872 11.861L8.77128 12.1319C7.4188 12.9329 6.74256 13.3333 6 13.3333C5.25744 13.3333 4.5812 12.9329 3.22872 12.1319L2.77128 11.861C1.4188 11.0601 0.742562 10.6596 0.371281 10C0 9.34038 0 8.53944 0 6.93756V6.39577C0 4.79389 0 3.99295 0.371281 3.33333C0.742562 2.67371 1.4188 2.27324 2.77128 1.4723L3.22872 1.20141ZM6.66667 9.33333C6.66667 9.70152 6.36819 10 6 10C5.63181 10 5.33333 9.70152 5.33333 9.33333C5.33333 8.96514 5.63181 8.66667 6 8.66667C6.36819 8.66667 6.66667 8.96514 6.66667 9.33333ZM6 2.83333C6.27614 2.83333 6.5 3.05719 6.5 3.33333V7.33333C6.5 7.60948 6.27614 7.83333 6 7.83333C5.72386 7.83333 5.5 7.60948 5.5 7.33333V3.33333C5.5 3.05719 5.72386 2.83333 6 2.83333Z" fill="#FFBE62"/>
</svg>
